<?xml version="1.0" encoding="UTF-8"?>
<svg id="LOGOTIPO" xmlns="http://www.w3.org/2000/svg" viewBox="0 0 1920 1080">
  <defs>
    <style>
      .cls-1, .cls-2 {
        fill: none;
        stroke: #fff;
        stroke-miterlimit: 10;
        stroke-width: 2px;
      }

      .cls-3 {
        fill: #fff;
        stroke-width: 0px;
      }

      .cls-2 {
        stroke-linecap: round;
      }
    </style>
  </defs>
  <path class="cls-3" d="m436.38,635.75c-13.84,0-26.54-2.21-38.12-6.62-11.59-4.41-21.67-10.71-30.25-18.88-8.59-8.16-15.25-17.75-20-28.75s-7.12-23.08-7.12-36.25,2.38-25.25,7.12-36.25,11.46-20.58,20.12-28.75c8.66-8.16,18.83-14.46,30.5-18.88,11.66-4.41,24.5-6.62,38.5-6.62,15.5,0,29.46,2.59,41.88,7.75,12.41,5.17,22.88,12.67,31.38,22.5l-26,24c-6.34-6.66-13.25-11.62-20.75-14.88s-15.67-4.88-24.5-4.88-16.25,1.34-23.25,4c-7,2.67-13.04,6.5-18.12,11.5-5.09,5-9,10.92-11.75,17.75-2.75,6.84-4.12,14.42-4.12,22.75s1.38,15.67,4.12,22.5c2.75,6.84,6.66,12.79,11.75,17.88,5.08,5.09,11.08,8.96,18,11.62,6.91,2.67,14.54,4,22.88,4s15.79-1.29,23.38-3.88c7.58-2.58,14.96-6.96,22.12-13.12l23,29.25c-9.5,7.17-20.54,12.67-33.12,16.5-12.59,3.83-25.12,5.75-37.62,5.75Zm33.75-27.5v-65.75h37v71l-37-5.25Z"/>
  <path class="cls-3" d="m608.63,634.75c-15.34,0-28.79-3-40.38-9-11.59-6-20.54-14.21-26.88-24.62-6.34-10.41-9.5-22.29-9.5-35.62s3.12-25.46,9.38-35.88c6.25-10.41,14.79-18.58,25.62-24.5,10.83-5.91,23.08-8.88,36.75-8.88s25.04,2.79,35.62,8.38c10.58,5.59,18.96,13.59,25.12,24,6.16,10.42,9.25,22.88,9.25,37.38,0,1.5-.09,3.21-.25,5.12-.17,1.92-.34,3.71-.5,5.38h-109.25v-22.75h88.75l-15,6.75c0-7-1.42-13.08-4.25-18.25-2.84-5.16-6.75-9.21-11.75-12.12-5-2.91-10.84-4.38-17.5-4.38s-12.54,1.46-17.62,4.38c-5.09,2.92-9.04,7-11.88,12.25-2.84,5.25-4.25,11.46-4.25,18.62v6c0,7.34,1.62,13.79,4.88,19.38,3.25,5.59,7.83,9.84,13.75,12.75,5.91,2.92,12.88,4.38,20.88,4.38,7.16,0,13.46-1.08,18.88-3.25,5.41-2.16,10.38-5.41,14.88-9.75l20.75,22.5c-6.17,7-13.92,12.38-23.25,16.12-9.34,3.75-20.09,5.62-32.25,5.62Z"/>
  <g>
    <ellipse class="cls-1" cx="762.79" cy="564.83" rx="73.58" ry="74.06"/>
    <ellipse class="cls-1" cx="792.91" cy="515.43" rx="11.19" ry="19.16" transform="translate(-49.92 944.39) rotate(-60)"/>
    <path class="cls-2" d="m725.33,628.59c10.71-16.21,21.49-33.25,32.23-51.13,12.93-21.54,24.77-42.56,35.61-62.93"/>
    <path class="cls-2" d="m714.44,620.51c.16-1.49.47-3.84,1.18-6.65,1.66-6.62,4.34-11.31,5.79-13.74,12.21-20.53,26.6-38.46,26.6-38.46,10.2-12.71,16.29-20.26,26.07-29.94,7.39-7.32,14.06-13.07,19.11-17.18"/>
    <path class="cls-2" d="m704.94,610.59c-.37-1.69-.76-4.2-.7-7.23.12-5.54,1.72-9.62,2.41-11.4,7.36-18.8,25.91-37.84,25.91-37.84,15.18-15.58,29.03-24.15,32.4-26.19,10.68-6.47,20.52-10.66,28.21-13.4"/>
    <path class="cls-2" d="m698.04,600.04c-.93-2.54-1.89-6.01-2.17-10.2-.14-2.02-.39-6.21.98-11.24.56-2.06,1.42-4.36,4.39-9.5,1.81-3.12,4.91-8.48,9.29-13.9,15.51-19.21,39.6-30.02,41.13-30.69,6.4-2.8,15.03-5.65,16.75-6.22,5.69-1.88,7.99-2.4,9.17-2.65,6.42-1.34,11.88-1.34,15.58-1.11"/>
    <path class="cls-2" d="m690.49,578.66c0-5.14.61-12.73,3.91-20.99,11.59-29.05,45.09-38.36,54.41-40.95,8.81-2.45,24.32-5.44,44.19-2.21"/>
    <path class="cls-2" d="m690.35,551.78c2.81-8.98,6.93-15.17,9.8-18.84,12.66-16.18,30.45-20.82,37.09-22.55,8.25-2.15,15.37-2.48,18.94-2.62,4.34-.18,10.93-.41,19.37,1.18,7.3,1.38,13.26,3.6,17.62,5.59"/>
    <path class="cls-2" d="m700.56,525.3c4.58-5.82,11.8-13.12,22.41-18.13,32.61-15.42,66.7,5.17,70.21,7.36"/>
    <path class="cls-2" d="m718.2,505.91c4.88-3.3,14.24-8.56,26.89-9.43,11.4-.78,20.03,2.38,25.73,4.54,10.52,3.98,17.95,9.62,22.35,13.51"/>
    <path class="cls-2" d="m739.61,494.52c4.67-1.16,14.61-2.95,26.3.45,15.97,4.64,24.65,15.87,27.27,19.56"/>
    <path class="cls-2" d="m761.9,490.77c5.58.55,9.79,2.19,12.37,3.41,9.42,4.49,14.47,11.86,16.56,15.5,1.13,1.96,1.88,3.68,2.34,4.84"/>
    <path class="cls-2" d="m774.46,491.69c1.69.38,4.14,1.13,6.77,2.71.15.09,2.84,1.73,5.15,4.21,5.33,5.73,6.52,13.71,6.79,15.92"/>
    <path class="cls-2" d="m791.06,496.43c.91,1.71,2,4.21,2.56,7.38.82,4.65.13,8.5-.45,10.72"/>
    <path class="cls-2" d="m800.46,501.19c-2.43,4.44-4.86,8.89-7.28,13.33"/>
    <path class="cls-2" d="m793.09,514.51c1.68-1.48,4.14-3.34,7.43-4.91,3.16-1.51,6.05-2.25,8.2-2.63"/>
    <path class="cls-2" d="m793.17,514.53c2.62-1.09,7.16-2.59,12.94-2.47,4.31.09,7.8,1.05,10.16,1.9"/>
    <path class="cls-2" d="m793.17,514.53c3.38-.41,9.04-.67,15.64,1.2,7.71,2.19,12.92,6.2,15.58,8.57"/>
    <path class="cls-2" d="m793.17,514.53c4.53.49,11.78,1.87,19.55,6.19,10.64,5.91,16.48,14.11,19.05,18.3"/>
    <path class="cls-2" d="m793.17,514.53c5.35,1.52,18.91,6.14,29.99,19.3,9.1,10.81,12.06,22.07,13.13,27.59"/>
    <path class="cls-2" d="m832.71,587.95c.91-7.07,1.47-19.4-3.52-33.26-9.17-25.47-30.32-37.23-36.02-40.17"/>
    <path class="cls-2" d="m793.17,514.53c.93.66,2.9,2.09,5.22,4.08,20.85,17.89,25.89,43.05,27.2,49.57.98,4.88,1.23,8.53,1.3,11.02.23,7.99-1.15,14.15-1.86,16.9-.84,3.27-2.19,8.37-5.69,14.21-3.58,5.99-7.85,10.14-11.16,12.81"/>
    <path class="cls-2" d="m785.43,635.32c5.31-2.65,14.8-8.34,22.05-19.19,8.22-12.3,9.02-24.45,9.46-32.5,1.78-33.03-16.55-59.63-23.76-69.1"/>
    <path class="cls-2" d="m764.63,638.87c2.5-.35,5.82-1.07,9.47-2.67,4.59-2,7.9-4.59,10-6.53,2.52-2.49,5.99-6.33,9.22-11.6,1.43-2.34,4.11-7.05,6.53-14.65,9.62-30.24,5.04-55.98,5.04-55.98-1.41-7.95-4.47-19.8-11.72-32.92"/>
    <path class="cls-2" d="m752.72,638.2c8.95-7.05,23.86-20.82,34.04-42.93,16.74-36.33,9.21-70.19,6.41-80.74"/>
    <path class="cls-2" d="m737.18,634.14c10.37-10,22.94-24.43,33.69-43.91,15.47-28.04,19.69-53,20.95-62.07.78-5.57,1.15-10.27,1.35-13.64"/>
    <path class="cls-2" d="m822.06,536.94c-1.71,4.14-5.75,6.85-7.11,7.68-6.15,3.75-12.76,2.81-16.47,2.28-4.08-.58-6.8-1.74-11.17-3.61-3.91-1.68-9.55-4.15-15.7-9.12-3.62-2.92-8.13-6.56-11.62-12.97-2.07-3.8-4.63-8.5-3.54-14.22.82-4.26,3.34-7.4,5.07-8.99,8.69-7.97,27.09-3.95,38.92,3.2,13.63,8.24,26,25.11,21.61,35.75Z"/>
    <path class="cls-2" d="m831.25,553.57c-7.15,13.39-39,13.81-60.82,1.77-21.98-12.14-38.51-39.39-30.9-52.41,3.99-6.83,15.84-11.85,22.37-12.15.52-.02,3.29-.12,6.93.17,0,0,4.04.32,8.35,1.24,12.67,2.7,23.17,8.97,23.17,8.97,2.57,1.53,10.63,6.67,18.67,15.9,4.33,4.98,8.45,9.8,10.94,17.41,1.41,4.32,4.46,13.17,1.3,19.1Z"/>
    <path class="cls-2" d="m836.17,560.8c.2,2.27.18,5.81-1.41,9.53-3.58,8.36-12.42,11.39-16.96,12.95-11.01,3.77-20.66,1.95-28.65.34-3.75-.76-15.31-3.35-29.22-11.66-9.83-5.87-24.03-14.37-32.6-31.35-3.8-7.54-10.82-21.44-4.35-33.44,4.23-7.85,12.25-11.17,16.04-12.45"/>
    <path class="cls-2" d="m833.22,586.32c-1.62,2.66-4.35,6.44-8.69,9.72-19.5,14.71-50.53,2.43-62.39-2.24-13.6-5.35-22.45-11.96-25.94-14.71-5.91-4.66-14.48-11.56-21.21-23.52-4.62-8.22-10.83-19.24-7.71-32.17,2.01-8.33,7.04-13.96,10.09-16.85"/>
    <path class="cls-2" d="m823.89,606.1c-3.24,2.66-8.43,6.25-15.5,8.61-4.63,1.54-11.7,3.09-24.37,1.68-22.1-2.47-38.47-11.43-42.3-13.6-4.71-2.67-23.16-13.5-36.48-33.55-6.17-9.29-8.06-15.73-8.81-20.93-1.06-7.41.02-13.64,1.03-17.58"/>
    <path class="cls-2" d="m806.85,624.15c-5.17,2.2-13,4.85-22.74,5.52-23.81,1.64-41.46-9.76-53.15-17.3-11.19-7.22-30.58-19.74-38.2-43.39-1.87-5.81-2.57-10.85-2.86-14.26"/>
    <path class="cls-2" d="m691.39,582.79c3.88,7.72,14.65,26.55,37.33,39.93,23.4,13.81,45.84,13.75,54.42,13.3"/>
  </g>
  <path class="cls-3" d="m847.38,531.25v-30h93.25v30h-93.25Zm71,103.5c-15.84,0-28.17-4.04-37-12.12-8.84-8.08-13.25-20.12-13.25-36.12v-118h39v117.5c0,5.67,1.5,10.04,4.5,13.12,3,3.09,7.08,4.62,12.25,4.62,6.16,0,11.41-1.66,15.75-5l10.5,27.5c-4,2.84-8.79,4.96-14.38,6.38-5.59,1.41-11.38,2.12-17.38,2.12Z"/>
  <path class="cls-3" d="m1034.62,634.75c-15.34,0-28.79-3-40.38-9-11.59-6-20.54-14.21-26.88-24.62-6.34-10.41-9.5-22.29-9.5-35.62s3.12-25.46,9.37-35.88c6.25-10.41,14.79-18.58,25.62-24.5,10.83-5.91,23.08-8.88,36.75-8.88s25.04,2.79,35.62,8.38c10.58,5.59,18.96,13.59,25.12,24,6.16,10.42,9.25,22.88,9.25,37.38,0,1.5-.09,3.21-.25,5.12-.17,1.92-.34,3.71-.5,5.38h-109.25v-22.75h88.75l-15,6.75c0-7-1.42-13.08-4.25-18.25-2.84-5.16-6.75-9.21-11.75-12.12-5-2.91-10.84-4.38-17.5-4.38s-12.54,1.46-17.62,4.38c-5.09,2.92-9.04,7-11.88,12.25-2.84,5.25-4.25,11.46-4.25,18.62v6c0,7.34,1.62,13.79,4.88,19.38,3.25,5.59,7.83,9.84,13.75,12.75,5.91,2.92,12.88,4.38,20.88,4.38,7.16,0,13.46-1.08,18.88-3.25,5.41-2.16,10.38-5.41,14.88-9.75l20.75,22.5c-6.17,7-13.92,12.38-23.25,16.12-9.34,3.75-20.09,5.62-32.25,5.62Z"/>
  <path class="cls-3" d="m1125.62,632.75v-134.5h37.25v38l-5.25-11c4-9.5,10.41-16.71,19.25-21.62,8.83-4.91,19.58-7.38,32.25-7.38v36c-1.67-.16-3.17-.29-4.5-.38-1.34-.08-2.75-.12-4.25-.12-10.67,0-19.29,3.04-25.88,9.12-6.59,6.09-9.88,15.54-9.88,28.38v63.5h-39Z"/>
  <path class="cls-3" d="m1234.38,627.51v-164.53c0-2.89,2.34-5.24,5.24-5.24h70.51c15.66,0,29.16,2.54,40.5,7.62,11.33,5.09,20.08,12.38,26.25,21.88,6.16,9.5,9.25,20.84,9.25,34s-3.09,24.21-9.25,33.62c-6.17,9.42-14.92,16.62-26.25,21.62-11.34,5-24.84,7.5-40.5,7.5h-40.49c-4.68,0-7.01-5.68-3.68-8.96h0c3.31-3.26,8.91-.92,8.91,3.73v48.75c0,2.89-2.34,5.24-5.24,5.24h-30.03c-2.89,0-5.24-2.34-5.24-5.24Zm31.46-66.3l-.59-.63c-3.16-3.34-.8-8.84,3.8-8.84h38.83c12.5,0,21.83-2.71,28-8.12,6.16-5.41,9.25-12.88,9.25-22.38s-3.09-17.16-9.25-22.5c-6.17-5.33-15.5-8-28-8h-38.94c-4.58,0-6.95-5.47-3.82-8.81l.7-.75c3.24-3.47,9.06-1.17,9.06,3.58v72.85c0,4.73-5.78,7.04-9.04,3.6Zm78.23,69.27l-36.54-53.03c-2.39-3.47.09-8.21,4.31-8.21h30.55c1.71,0,3.32.84,4.3,2.24l36.95,53.03c2.42,3.47-.06,8.23-4.3,8.23h-30.97c-1.72,0-3.33-.85-4.31-2.26Z"/>
  <path class="cls-3" d="m1398.47,625.23l73.24-164.32c.86-1.93,2.77-3.17,4.88-3.17h33.07c2.11,0,4.02,1.24,4.88,3.16l73.47,164.32c1.58,3.53-1.01,7.52-4.88,7.52h-30.69c-2.16,0-4.11-1.3-4.93-3.3l-59.57-143.82c-1.46-3.52,1.13-7.39,4.93-7.39h0c3.81,0,6.39,3.87,4.93,7.39l-59.81,143.82c-.83,1.99-2.77,3.29-4.93,3.29h-29.71c-3.87,0-6.45-3.98-4.88-7.52Zm38.13-37.09l7.02-20.07c.75-2.14,2.77-3.58,5.04-3.58h82.45c2.26,0,4.27,1.42,5.03,3.54l7.18,20.07c1.24,3.48-1.33,7.14-5.03,7.14h-96.64c-3.68,0-6.26-3.63-5.04-7.1Z"/>
</svg>