<?xml version="1.0" encoding="utf-8"?>
<!-- Generator: Adobe Illustrator 28.3.0, SVG Export Plug-In . SVG Version: 6.00 Build 0)  -->
<svg version="1.1" id="LOGO" xmlns="http://www.w3.org/2000/svg" xmlns:xlink="http://www.w3.org/1999/xlink" x="0px" y="0px"
	 viewBox="0 0 1826.82 279.71" style="enable-background:new 0 0 1826.82 279.71;" xml:space="preserve">
<style type="text/css">
	.st0{fill:#084F9D;}
	.st1{fill:#F49C2A;}
	.st2{fill:#010101;}
	.st3{fill:#020202;}
	.st4{fill:#030303;}
	.st5{fill:#F0F0F0;}
	.st6{fill:#0B0B0B;}
	.st7{fill:#F7F7F7;}
	.st8{fill:#EEEEEE;}
	.st9{fill:#F6F6F6;}
	.st10{fill:#F3F3F3;}
	.st11{fill:#1C1C1B;}
	.st12{fill:#20201F;}
	.st13{fill:#E9E9E9;}
	.st14{fill:#E4E4E3;}
	.st15{fill:#CCCCCC;}
	.st16{fill:#E3E3E3;}
	.st17{fill:#F1F1F0;}
	.st18{fill:#CACACA;}
	.st19{fill:#D7D7D7;}
	.st20{fill:#E5E5E5;}
	.st21{fill:#D9D9D9;}
	.st22{fill:#5B5B5A;}
	.st23{fill:#D5D5D4;}
	.st24{fill:#CBCBCB;}
	.st25{fill:#A8A8A8;}
	.st26{fill:#C3C3C3;}
	.st27{fill:#FCFCFC;}
	.st28{fill:#F4F4F4;}
	.st29{fill:#454545;}
	.st30{fill:#E1E1E0;}
	.st31{fill:#7F7F7F;}
	.st32{fill:#FBFBFB;}
	.st33{fill:#B5B5B4;}
	.st34{fill:#BDBDBD;}
	.st35{fill:#C8C8C8;}
	.st36{fill:#737373;}
	.st37{fill:#8D8D8D;}
	.st38{fill:#B2B2B2;}
	.st39{fill:#E7E7E7;}
	.st40{fill:#757575;}
	.st41{fill:#939393;}
	.st42{fill:#9B9B9B;}
	.st43{fill:#D2D2D2;}
	.st44{fill:#C2C2C2;}
	.st45{fill:#484847;}
	.st46{fill:#ABABAB;}
	.st47{fill:#EFEFEF;}
	.st48{fill:#5C5C5C;}
	.st49{fill:#D6D6D6;}
	.st50{fill:#929292;}
	.st51{fill:#DCDCDC;}
	.st52{fill:#828281;}
	.st53{fill:#B9B9B9;}
	.st54{fill:#AAAAAA;}
	.st55{fill:#2D2D2D;}
	.st56{fill:#323232;}
	.st57{fill:#626262;}
	.st58{fill:#949494;}
	.st59{fill:#EAEAE9;}
	.st60{fill:#313131;}
	.st61{fill:#7E7E7D;}
	.st62{fill:#3F3F3F;}
	.st63{fill:#616161;}
	.st64{fill:#4C4C4C;}
	.st65{fill:#4F4F4F;}
	.st66{fill:#434342;}
	.st67{fill:#949493;}
	.st68{fill:#DEDEDE;}
	.st69{fill:#D5D5D5;}
	.st70{fill:#DADADA;}
	.st71{fill:#C0C0C0;}
	.st72{fill:#545454;}
	.st73{fill:#767676;}
	.st74{fill:#F8F8F8;}
	.st75{fill:#ECECEC;}
	.st76{fill:#242424;}
	.st77{fill:#5A5A5A;}
	.st78{fill:#404040;}
	.st79{fill:#9A9A9A;}
	.st80{fill:#F1F1F1;}
	.st81{fill:#1C1C1C;}
	.st82{fill:#EAEAEA;}
	.st83{fill:#797979;}
	.st84{fill:#A9A9A9;}
	.st85{fill:#EBEBEB;}
	.st86{fill:#B1B1B1;}
	.st87{fill:#E2E2E2;}
	.st88{fill:#1A1A1A;}
	.st89{fill:#8B8B8B;}
	.st90{fill:#A6A6A6;}
	.st91{fill:#585858;}
	.st92{fill:#989898;}
	.st93{fill:#969696;}
	.st94{fill:#E1E1E1;}
	.st95{fill:#6D6D6D;}
	.st96{fill:#2E2E2E;}
	.st97{fill:#1E1E1E;}
	.st98{fill:#474746;}
	.st99{fill:#B3B3B3;}
	.st100{fill:#0E0E0E;}
	.st101{fill:#40403F;}
	.st102{fill:#1F1F1F;}
	.st103{fill:#333333;}
	.st104{fill:#282828;}
	.st105{fill:#212121;}
	.st106{fill:#9F9F9F;}
	.st107{fill:#5B5B5B;}
</style>
<g>
	<g>
		<path d="M146.96,268.53c-20.07,0-38.51-3.21-55.31-9.61c-16.81-6.4-31.44-15.53-43.89-27.38c-12.46-11.84-22.12-25.75-29.02-41.71
			S8.41,156.34,8.41,137.23c0-19.1,3.45-36.63,10.34-52.59s16.62-29.86,29.2-41.71c12.57-11.84,27.32-20.97,44.25-27.38
			c16.92-6.4,35.54-9.61,55.86-9.61c22.49,0,42.74,3.75,60.75,11.24c18.01,7.5,33.19,18.38,45.52,32.64L216.6,84.64
			c-9.19-9.67-19.22-16.87-30.1-21.58c-10.88-4.72-22.73-7.07-35.54-7.07c-12.33,0-23.58,1.94-33.73,5.8
			c-10.16,3.87-18.92,9.43-26.3,16.68c-7.38,7.25-13.06,15.84-17.05,25.75c-3.99,9.92-5.98,20.92-5.98,33.01
			c0,11.85,1.99,22.73,5.98,32.64c3.99,9.92,9.67,18.56,17.05,25.93c7.37,7.38,16.08,13,26.11,16.87c10.03,3.87,21.09,5.8,33.19,5.8
			c11.61,0,22.91-1.87,33.91-5.62c11-3.75,21.7-10.09,32.1-19.04l33.37,42.44c-13.78,10.4-29.8,18.38-48.06,23.94
			C183.29,265.75,165.1,268.53,146.96,268.53z M195.93,228.63v-95.39h53.68v103.01L195.93,228.63z"/>
		<path d="M396.86,267.08c-22.25,0-41.77-4.35-58.58-13.06c-16.81-8.7-29.8-20.61-38.99-35.73c-9.19-15.11-13.78-32.34-13.78-51.68
			c0-19.59,4.53-36.93,13.6-52.05c9.07-15.11,21.46-26.96,37.18-35.54c15.71-8.58,33.49-12.88,53.32-12.88
			c19.1,0,36.33,4.05,51.68,12.15c15.35,8.1,27.5,19.71,36.45,34.82c8.94,15.11,13.42,33.19,13.42,54.22c0,2.18-0.12,4.66-0.36,7.44
			c-0.24,2.78-0.49,5.38-0.73,7.8h-158.5v-33.01h128.76l-21.76,9.79c0-10.16-2.06-18.98-6.17-26.48
			c-4.11-7.49-9.79-13.36-17.05-17.59c-7.25-4.23-15.72-6.35-25.39-6.35c-9.67,0-18.2,2.12-25.57,6.35
			c-7.38,4.23-13.12,10.16-17.23,17.77c-4.11,7.62-6.17,16.63-6.17,27.02v8.7c0,10.64,2.36,20.01,7.07,28.11
			c4.72,8.1,11.36,14.27,19.95,18.5c8.58,4.23,18.68,6.35,30.29,6.35c10.39,0,19.52-1.57,27.38-4.72
			c7.85-3.14,15.05-7.85,21.58-14.15l30.1,32.64c-8.95,10.16-20.19,17.95-33.73,23.39C430.1,264.36,414.5,267.08,396.86,267.08z"/>
		<path d="M743.23,116.92V73.4h135.29v43.52H743.23z M846.24,267.08c-22.97,0-40.87-5.86-53.68-17.59
			c-12.82-11.73-19.22-29.2-19.22-52.41V25.89h56.58v170.47c0,8.22,2.18,14.57,6.53,19.04c4.35,4.48,10.27,6.71,17.77,6.71
			c8.94,0,16.56-2.41,22.85-7.25l15.23,39.9c-5.8,4.11-12.76,7.2-20.85,9.25C863.34,266.05,854.94,267.08,846.24,267.08z"/>
		<path d="M1014.89,267.08c-22.25,0-41.77-4.35-58.58-13.06c-16.81-8.7-29.8-20.61-38.99-35.73c-9.19-15.11-13.78-32.34-13.78-51.68
			c0-19.59,4.53-36.93,13.6-52.05c9.07-15.11,21.46-26.96,37.18-35.54c15.71-8.58,33.49-12.88,53.32-12.88
			c19.1,0,36.33,4.05,51.68,12.15c15.35,8.1,27.5,19.71,36.45,34.82c8.94,15.11,13.42,33.19,13.42,54.22c0,2.18-0.12,4.66-0.36,7.44
			c-0.24,2.78-0.49,5.38-0.73,7.8H949.6v-33.01h128.76l-21.76,9.79c0-10.16-2.06-18.98-6.17-26.48
			c-4.11-7.49-9.79-13.36-17.05-17.59c-7.25-4.23-15.72-6.35-25.39-6.35c-9.67,0-18.2,2.12-25.57,6.35
			c-7.38,4.23-13.12,10.16-17.23,17.77c-4.11,7.62-6.17,16.63-6.17,27.02v8.7c0,10.64,2.36,20.01,7.07,28.11
			c4.72,8.1,11.36,14.27,19.95,18.5c8.58,4.23,18.68,6.35,30.29,6.35c10.39,0,19.52-1.57,27.38-4.72
			c7.85-3.14,15.05-7.85,21.58-14.15l30.1,32.64c-8.95,10.16-20.19,17.95-33.73,23.39C1048.13,264.36,1032.53,267.08,1014.89,267.08
			z"/>
		<path d="M1146.91,264.18V69.05h54.04v55.13l-7.62-15.96c5.8-13.78,15.11-24.24,27.93-31.37c12.81-7.13,28.41-10.7,46.79-10.7
			v52.23c-2.42-0.24-4.6-0.42-6.53-0.54c-1.94-0.12-3.99-0.18-6.17-0.18c-15.48,0-27.99,4.41-37.54,13.24
			c-9.55,8.83-14.33,22.55-14.33,41.17v92.12H1146.91z"/>
		<path class="st0" d="M1304.68,256.58V17.89c0-4.19,3.4-7.6,7.6-7.6h102.3c22.73,0,42.31,3.69,58.76,11.06
			c16.44,7.38,29.13,17.95,38.08,31.74c8.94,13.78,13.42,30.23,13.42,49.33c0,18.86-4.48,35.12-13.42,48.78
			c-8.95,13.66-21.64,24.12-38.08,31.37c-16.45,7.25-36.03,10.88-58.76,10.88h-58.74c-6.79,0-10.17-8.23-5.33-13v0
			c4.8-4.73,12.93-1.33,12.93,5.41v70.73c0,4.19-3.4,7.6-7.6,7.6h-43.57C1308.08,264.18,1304.68,260.78,1304.68,256.58z
			 M1350.33,160.39l-0.86-0.91c-4.59-4.84-1.15-12.82,5.51-12.82h56.33c18.13,0,31.67-3.93,40.62-11.79
			c8.94-7.85,13.42-18.68,13.42-32.46c0-14.02-4.48-24.9-13.42-32.64c-8.95-7.74-22.49-11.61-40.62-11.61h-56.49
			c-6.64,0-10.09-7.93-5.55-12.78l1.02-1.09c4.71-5.03,13.14-1.7,13.14,5.19v105.69C1363.44,162.03,1355.05,165.38,1350.33,160.39z
			 M1463.82,260.89l-53.01-76.93c-3.47-5.04,0.14-11.9,6.25-11.9h44.33c2.48,0,4.81,1.21,6.23,3.25l53.61,76.93
			c3.51,5.04-0.09,11.94-6.23,11.94h-44.93C1467.58,264.18,1465.24,262.95,1463.82,260.89z"/>
		<path class="st1" d="M1542.75,253.27L1649,14.89c1.25-2.79,4.02-4.59,7.08-4.59h47.98c3.06,0,5.83,1.8,7.07,4.59l106.59,238.39
			c2.29,5.13-1.46,10.91-7.07,10.91h-44.53c-3.13,0-5.96-1.89-7.16-4.78l-86.43-208.65c-2.11-5.1,1.64-10.71,7.16-10.71l0,0
			c5.53,0,9.28,5.62,7.16,10.72l-86.77,208.65c-1.2,2.89-4.02,4.77-7.16,4.77h-43.1C1544.22,264.18,1540.47,258.4,1542.75,253.27z
			 M1598.07,199.47l10.18-29.11c1.09-3.11,4.02-5.19,7.32-5.19h119.61c3.27,0,6.19,2.06,7.3,5.14l10.41,29.11
			c1.81,5.05-1.94,10.36-7.3,10.36h-140.2C1600.05,209.77,1596.31,204.5,1598.07,199.47z"/>
	</g>
	<g>
		<path class="st2" d="M652.42,269.29c-3.85,0.54-7.41,2.44-11.37,2.46c-0.22-1.92,1.47-1.63,2.46-2.05
			c1.22-0.53,2.69-0.5,3.65-1.63c0.56-0.49,1.18-0.86,1.93-0.93c0.47-0.05,0.95-0.02,1.36-0.17c-1.33,0.13-2.75,0.06-4.02,0.77
			c-0.87,0.29-1.73,0.63-2.66,0.19c-1.16-1.94-4.51-0.44-5.11-3.26c0.48-0.46,1.08-0.76,1.71-0.72c7,0.37,10.09-5.27,14.41-9.24
			c-4.52-0.3-8.9-0.48-13.25-1.08c-2.04-0.28-3.57,0.84-5.04,2.18c-1.95,1.78-3.37,4.14-5.78,5.43c-0.81,0.04-1.46-0.3-1.99-0.88
			c-0.17-2.63,2.12-3.86,3.35-5.67c1.19-1.74,0.82-2.39-1.09-2.76c-4.84-0.93-9.65-1.98-14.35-3.49c-1.8-0.58-3.15-0.07-4.25,1.5
			c-0.91,1.3-1.57,2.99-3.59,3c-0.82-0.24-1.14-0.87-1.26-1.64c1.14-5.14,1.06-4.93-4.15-7.14c-3.61-1.53-6.67-1.63-9.78,0.96
			c-1.61,1.34-3.64,1.77-5.73,1.23c-1.42-0.37-2.75-0.15-4.07,0.36c-1.57-1.88-3.99-2.44-5.92-3.79
			c-0.93-7.15-0.78-14.33-0.16-21.45c0.46-5.29,6.3-9.65,11.04-9.03c0.26,2.27,1.41,1.65,2.62,0.78c0.59-0.38,1.21-0.68,1.9-0.82
			c2.41,0.32,3.69-0.93,4.66-3c2.05-4.36,3.65-8.91,5.79-13.23c0.97-1.96,0.2-3.09-1.56-3.93c-3.89-1.86-7.69-3.88-11.39-6.1
			c-1.17-0.7-2.61-1.19-2.56-2.96c0.41-0.67,1.04-1.02,1.77-1.23c4.56,0.91,8.22,3.81,12.36,5.67c4.34,1.96,4.2,2.04,6.45-2.23
			c2.31-4.39,4-9.07,6.32-13.45c1.15-2.17,0.72-3.48-1.5-4.53c-4.02-1.9-8.02-3.86-11.76-6.29c-2.15-1.4-3.49-0.63-4.62,1.36
			c-1.88,3.31-3.96,6.51-5.83,9.84c-0.67,1.19-1.18,2.61-2.93,2.65c-0.69-0.37-1.05-1-1.29-1.71c-0.38-2.25,1.2-3.74,2.15-5.45
			c1.22-2.19,2.45-4.4,3.88-6.46c1.45-2.09,2.18-4.17,0.92-6.58c0.23-0.81,0.84-1.14,1.6-1.29c1.74,0.13,2.77-0.79,3.67-2.19
			c2.97-4.58,6-9.12,9.08-13.63c1.34-1.96,1.74-3.22-0.84-4.84c-2.46-1.54-4.21-4.39-7.4-1.42c-0.24,0.23-0.77,0.16-1.11,0.04
			c-4.84-1.76-7.18,1.67-9.78,4.65c-1.88,2.15-3.26,4.91-6.49,5.48c-0.81-0.25-1.11-0.86-1.16-1.64c-0.07-1.35,1.29-2.09,1.5-3.64
			c-2.06-0.33-4.16-1.14-6.07,0.02c-1.56,0.95,0.43,2.18,0.25,3.35c-0.05,0.79-0.44,1.36-1.11,1.76c-1.58-0.02-2.87,0.37-3.85,1.83
			c-0.73,1.09-1.79,2.53-3.37,1.58c-1.78-1.07-0.87-2.78-0.18-4.04c1.41-2.59,1.04-4.69-0.95-6.82c-1.44-1.55-2.56-1.68-4.08-0.16
			c-1.77,1.78-3.55,3.58-5.57,5.09c-0.42,0.32-0.94,0.29-1.41-0.01c-0.48-0.62-0.56-1.34-0.46-2.09c0.57-2.24,2.36-3.57,3.92-5
			c2.08-1.9,2.95-3.73,0.78-6.11c-0.53-0.58-0.59-1.38-0.54-2.16c-0.25-7.98,0.53-15.97-0.46-23.92c0.34-2.15-1.38-1.14-2.25-1.44
			c-0.72-0.24-1.35-0.6-1.7-1.32c0.36-1.91,2.02-2.54,3.44-3.26c4.41-2.25,8.28-5.44,12.93-7.29c1.82-0.72,2.19-2.3,2.02-4.37
			c-3.26,0.23-5.91,2.04-8.82,3.04c-1.39,0.47-2.68,1.64-4.28,0.6c-0.45-0.66-0.48-1.38-0.27-2.12c2.91-3.33,7.22-3.94,11-5.56
			c2.09-0.9,4.4-1.33,5.76-3.66c-5.78,1.39-10.67,4.47-15.81,6.98c-0.97-0.48-2.24-0.2-3.04-1.16
			c12.66-9.23,26.96-14.77,42.27-17.17c35.89-5.62,67.01,4.54,93.28,29.6c0.45,0.43,0.78,0.98,1.16,1.47
			c-0.32,0.24-0.68,0.33-1.06,0.23c-0.5-0.12-0.74-0.52-0.97-1.2c0.19,5.47-0.78,10.7,0.09,15.95c0.14,0.85-0.36,1.73-0.75,2.53
			c-0.46,1.12-1.78,2.64,1.06,2.18c2.44,0.41,1.87,1.96,1.08,3.3c-2.04,3.48-2.42,6.61,0.84,9.73c1.45,1.39,2.27,3.4,0.2,5.21
			c-2.06,0.56-1.55-1.23-1.96-2.16c-0.26-0.58-0.5-1.29-1.24-1.16c-0.91,0.17-1.07,1-0.89,1.76c0.31,1.31,0.39,2.98,1.7,3.56
			c1.38,0.6,1.18-2.14,2.77-1.81c1.56,1.88,0.98,3.63-0.61,4.98c-1.76,1.48-2.17,3.27-2.11,5.39c0.12,4.29-0.14,8.59-0.01,12.88
			c-1.93,2.81-4.88,4.36-7.64,6.14c-3.73-0.27-7.5,0.35-11.2-0.5c-0.96-0.52-1.78-1.23-1.16-2.39c1.08-2,3.13-1.07,4.6-1.37
			c-1.56,0-3.32,0.3-4.99-0.17c-3.42-0.96-5.32,0.46-6.24,3.65c-1.26,2.3-1.06,4.91-1.6,7.36c-0.27,1.19-0.01,2.63-1.65,3.08
			c-1.84-1.8-1.13-4-0.85-6.07c1.18-8.76,1.21-8.76-7.02-10.78c-5.67-1.39-5.66-1.39-7.52,4.32c-0.38,1.18-0.52,2.51-1.67,3.3
			c-0.74-1.1-1.55,0.43-2.31-0.06c-1.43-2.43,0-4.7,0.56-6.95c0.59-2.38,0.26-3.78-2.29-4.62c-2.76-0.92-5.52-1.87-8.18-3.06
			c-2.18-0.98-3.63-0.4-4.57,1.77c-2.17,4.99-4.59,9.87-6.81,14.85c-0.98,2.19-0.62,3.56,1.77,4.38c1.27,0.44,2.69,0.91,3.07,2.53
			c0.36,0.43-1.89,0.6-0.12,1.2c0.15,0.05,0.09,0.44-0.03,0.69c-2.05,1.24-3.65-0.25-5.31-0.98c-1.78-0.79-2.7-0.39-3.58,1.36
			c-2.5,4.99-4.47,10.24-7.11,15.16c-1.19,2.22-1.1,3.79,1.53,4.75c1.04,0.38,2.14,0.89,2.42,2.2c-1.47,0.48,0.47,1.45-0.29,2.04
			c-1.12,0.69-2.25,0.38-3.26-0.15c-2.83-1.49-4.5-0.48-5.53,2.31c-1.58,4.27-3.82,8.26-5.56,12.47c-0.86,2.09-0.51,3.23,1.6,4.15
			c5,2.17,10.08,4.07,15.22,5.85c2.58,0.89,4.09,0.27,5.07-2.21c0.6-1.53,1.14-3.09,1.89-4.55c0.49-0.94,0.64-2.31,2.21-2.18
			c0.73,0.68,1.01,1.58,1.2,2.52c0.2,2.12-0.81,3.94-1.56,5.81c-0.83,2.08-0.41,3.35,1.91,3.94c5.03,1.3,10.1,2.43,15.21,3.37
			c2.06,0.38,3.43-0.34,4.22-2.29c0.42-1.05,0.83-2.15,1.95-2.71c0.8,0.2,1.72-0.35,2.45,0.36c0.86,2.49-0.81,4.13-1.58,5.92
			c0.92-0.1,2.15,0.16,3.2,1.04c2.39,1.73,4.94,0.96,7.47,0.48c1.22-0.24,2.43-0.22,3.62,0.18c1.08,0.58,2.27,0.89,3.4,1.34
			c1.67,0.65,2.38,1.75,0.7,3.23c-5.86-1.11-11.81-1.28-17.73-1.81c-1.8-0.16-2.79,0.97-3.55,2.38c-2.18,4-3.92,8.22-6.85,12.24
			c5.55,1.73,10.81,1.41,16.03,0.99c2.09-0.17,3.03-2.11,4.15-3.64c1.01-1.38,1.45-3.35,3.55-3.68c0.8,0.29,1.16,0.94,1.43,1.68
			c0.48,2.2-1.59,3.55-1.89,5.64c3.6,0.36,7.05-1.72,10.61-0.46c0.38,2.58,0.71,5.19,2.61,7.23c-6.78,4.94-14.35,8.35-22.14,11.31
			c-1.16,0.44-2.28,0.97-3.42,1.46C652.37,269.3,652.42,269.29,652.42,269.29z"/>
		<path d="M628.17,215.24c-1-0.54-0.84-1.52-0.91-2.41c-1.13-2.32,0.34-4.22,1.24-6.04c1.33-2.7,0.59-3.88-2.17-4.55
			c-2.59-0.63-5-1.84-7.51-2.74c-1.25-0.45-2.82-0.66-3.02-2.45c0.19-0.57-2.18-1.5,0.25-1.76c1.22-0.97,2.41-0.33,3.57,0.1
			c2.72,1.02,5.57,1.7,8.21,2.88c2.56,1.14,3.84,0.66,4.68-2.09c1.55-5.07,3.28-10.08,5.03-15.09c0.85-2.44,0.2-3.67-2.23-4.58
			c-2.57-0.96-5.77-0.95-7.27-3.94c0-0.58-2.11-1.48,0.25-1.71c2.52-1.25,4.62,0.38,6.77,1.14c4.69,1.65,4.67,1.73,6.27-3.09
			c0.48-1.43,0.81-2.91,1.28-4.34c0.37-1.13,0.45-2.56,2.06-2.83c0.54,0.46,1.35-2.3,1.73,0.14c1.46,3.14-0.43,5.9-1.11,8.75
			c-1.06,4.42-1.21,4.37,3.28,5.55c3.19,0.84,6.42,1.43,9.64,2.15c2.28,0.51,3.16-0.42,3.68-2.55c0.4-1.66-0.55-3.98,1.92-4.85
			c1.46-2.52,1.08-5.42,1.6-8.13c0.21-1.08-0.08-2.31,1.5-2.52c1.44,1.35,0.9,3.02,0.71,4.62c-0.46,3.75-0.96,7.5-1.46,11.25
			c-0.16,1.24-0.52,2.64,0.99,3.31c1.56,0.69,2.94,0.25,4.08-1.02c1.84-2.06,3.83-4,5.8-5.94c1.27-0.67,2.73,0.03,4.46-0.7
			c-1.71-0.37-3.04,0.62-4.3,0.01c-4.88-3.12-5.68-6.69-2.58-11.52c4.07,0.5,8.29-1.05,12.25,0.91c0.14,2.03-0.76,3.94-0.61,6
			c0.14,1.88,0.88,2.51,2.67,2.02c0.73-0.2,1.47-0.38,2.21-0.55c4.99-1.19,5.52-0.83,6.62,4.3c-0.21-4.78,0.29-9.69-3.07-13.85
			c-0.77-0.96-1.65-1.99-1.02-3.42c-0.9-1.31-1.31-17-0.26-17.9c1.8-1.55,4.99-2.32,2.46-5.69l0.02,0.03
			c1.58-2.25,0.58-4.11-1.04-5.71c-2.56-2.53-2.82-7.02-0.41-9.79c1.02-1.17,1-1.24-0.58-2.14c-1.83-0.29-1.32-1.9-1.7-3.01
			c1.72-3.27,0-6.73,0.51-10.16c0.39-2.58,0.42-5.44,0.28-8.18c1.23-0.44,1.83,0.93,2.87,0.78c12.61,12.47,21.16,27.44,25.89,44.38
			c9.69,34.75,3.29,66.58-18.42,95.36c-1.14,1.51-2.32,3-3.48,4.5c-1.33,1.51-2.6,3.09-4.19,4.35c-1.2,1.2-2.4,2.39-3.61,3.59
			c-0.68,1.22-1.9,1.83-2.95,2.63c-3.77,2.5-7.02,5.73-11.1,7.78c-3.4-1.41-4.08-3.82-2.6-7.04c1.16-2.41,3.98-3.23,5.25-5.57
			c1.43-2.61,4.23-5.37,2.06-8.2c-2.07-2.71-5.59-1.04-8.49-0.51c-2.02,0.37-2.58,2.18-3.5,3.67c-1.21,1.94-1.37,4.73-4.21,5.4
			c-0.8-0.36-1.01-1.07-1.12-1.85c-0.4-3.14,1.38-5.07,3.69-6.72c1.53-1.05,1.18-1.87-0.43-2.13c-1.26-0.21-2.51-0.17-3.15-1.54
			c0.87-1.18,2.32-0.78,3.44-1.26c1.56-0.66,2.57-2.01,2.16-3.55c-0.38-1.45-1.98-0.7-2.98-0.5c-6.78,1.3-9.24-3.64-12.09-8.18
			c-1.37,1.49-0.85,4.34-3.4,5.07c-0.6,0.08-1.29,0.74-1.73-0.26c-1.08-1.5-0.18-2.93,0.21-4.35c0.51-1.83,1.3-3.58,1.63-5.47
			c0.46-2.62-0.15-4.4-3.19-4.91c-4.25-0.71-8.45-1.79-12.56-3.09c-2.34-0.74-3.4,0.04-4.42,2.13
			C631.23,210.28,631.47,213.8,628.17,215.24z"/>
		<path d="M593.05,212.69c-0.33,0.76-0.99,0.97-1.73,1.04c-0.77,0.54-1.5,0.59-2.16-0.18c-2.8-1.08-8.42,2.15-9.89,5.74
			c-0.63,1.53-0.83,3.13-0.82,4.81c0.06,6.44,0.02,12.89,0.02,19.33c0.05,0.49,0.04,0.98-0.08,1.46c-0.37,1.08-0.82,2.15-0.53,3.34
			c0.18,1.18-0.36,1.77-1.51,1.9c-3.19-0.73-6.23-2.09-9.61-2.11c-1.44-0.01-2.57-0.99-3.52-2.08c-1.54-1.86-1.85-4.07-1.86-6.39
			c-0.01-3.91,0-7.81-0.01-11.72c-0.02-9.84-1.6-11.58-11.35-12.5c-1.7-0.36-2.79-1.46-3.59-2.92c-0.84-1.39-1.62-2.06-2.15,0.18
			c-0.14,0.59-0.23,1.2-0.59,1.72c-0.29,0.26-0.62,0.33-1,0.19c-1.3-1.15-0.89-2.77-1.15-4.21c-0.76-3.07-3.48-4.58-5.42-6.69
			c-1.8-1.95-3.66-3.85-6.17-6.08c-1.15,5.82-1.74,11.13,0.71,16.39c-0.53,1.41-1.67,1.31-2.83,1.14c-0.51-0.15-0.94-0.44-1.3-0.81
			c-0.54-0.91-1.22-0.38-1.89-0.16c-2.16-0.13-1.58-2.47-2.76-3.4c-7.74-16.23-10.33-33.36-8.89-51.18c0.71-1.54-0.13-3.26,0.58-4.8
			c0.04-0.43,0.08-0.87,0.12-1.3c0.81-1.23-0.08-2.74,0.66-3.98c-0.03-1.27-0.37-2.58,0.47-3.74c1.53-3.73,2.23-7.7,3.33-11.55
			c0.39-2.72,1.5-5.18,2.81-7.56c0.94-0.48,1.28,0.22,1.65,0.85c0.63,1.33-0.47,3,0.83,4.2c0.46,0.55,0.68,1.17,0.57,1.89
			c-0.3,1.17-0.93,2.21-1.33,3.35c-0.62,1.46-0.48,2.92-0.02,4.39c0.88,2.78,0.25,6.22,3.51,7.95c1.61,2.8,0.17,5.24-0.91,7.73
			c-0.68,0.78-1.05,1.92-2.33,1.98c-0.64-0.48-0.8-1.14-0.74-1.89c0.05-0.34,0.14-0.68,0.27-1c1.09-1.91,1.07-3.7-0.54-5.34
			c-1.19-1.7-1.49-3.72-1.99-5.64c-0.03-0.24-0.17-0.56-0.34-0.52c-0.18,0.04-0.29,0.35-0.37,0.6c-1.56,3.21-2.7,6.53-3.38,10.02
			c-0.53,2.38-0.74,4.74,0.17,7.08c1,2.41,1.4,4.98,1.82,7.54c0.12,0.49,0.83-0.27,0.38-0.03c-1.24,0.64,0.39-6.35,2.29-9.82
			c0.7-0.58,1.21-1.59,2.39-1.09c1.14,1.19,0.74,2.59,0.48,3.95c-0.29,1.49-0.72,2.95-1.08,4.43c-2.23,9.1-1.61,11.54,5.28,19.5
			c1.22-5.1,3.3-9.5,4.89-14.08c0.67-1.93-0.61-3.37-1.53-4.87c-1.3-2.12-3.44-3.81-3.51-6.59c0.07-0.79,0.31-1.48,1.08-1.86
			c1.1-0.24,1.71,0.47,2.31,1.2c0.79,1.09,1.49,2.26,2.29,3.34c0.54,0.66,0.77,1.65,1.85,1.72c0.9-0.4,1.32-1.27,1.97-1.92
			c1.4-1.48,2.09-3.37,2.98-5.15c1.22-2.19,2.59-4.31,4.11-6.28c1.37-1.77,1.66-3.54,0.96-5.58c-0.02-0.89,0.24-1.74,0.37-2.6
			c0-2.02-1.53-3.51-1.85-5.42c-0.3-1.25-0.29-2.52-0.29-3.79c-0.31-1.73,0.91-3.67-0.71-5.21c-0.32-0.03-0.62-0.11-0.92-0.23
			c-1.08-0.8-0.55-1.79-0.34-2.74c0.5-1.33,1.51-2.28,2.46-3.27c0.85-0.81,1.64-1.67,2.25-2.68c2.09-2.31,2.59-5.56,4.65-7.88
			c0.95-0.9,1.66-1.9,1.26-3.32c-0.21-0.61-0.43-1.22-0.4-1.88c-0.06-0.82,0.58-1.79-0.53-2.38c-2.81,0.42-4.18,3.48-7.03,3.81
			c-0.81-0.08-1.41-0.41-1.61-1.26c0.03-1.73,1.18-2.86,2.42-3.65c4.06-2.57,6.73-5.93,6.91-10.92c-0.69-2.59-1.87-5.24,1.76-6.81
			c0.44-0.19-0.42-1.86,0.67-2.53c1.46-1.59,3.12-2.9,5.1-3.77c0.77,0.55,2.29-1.16,2.58,0.85c0.73,0.82-1.19,1.66,0.01,2.48
			c0.01,0.73,0.01,1.47,0.02,2.2c-0.14,2.2-2.3,2.35-3.54,3.39c-2.83,2.37-3.53,5.09-1.84,7.98c0.7,0.04,1.31,0.23,1.61,0.95
			c0.19,1.79-1.86,2.14-2.41,3.76c1.65-1.08,2.38-3.05,4.36-3.28c1.18,0.46,1.8,1.31,1.8,2.6c-0.02,7.42-0.03,14.85-0.09,22.27
			c0,0.42-0.48,0.83-0.74,1.25c-0.17,0.02-0.33,0.05-0.5,0.07c-1.35-0.02-2.21,0.66-2.68,1.89c-2.48,2.9-6.17,4.86-6.99,9.06
			c-0.17,0.86-0.62,1.69-0.45,2.57c0.39,1.91,1.3,2.66,3.14,1.33c1.28-0.92,1.77-2.83,3.7-2.91c0.03,0.85,0.07,1.7,0.1,2.54
			c2.93,4.05,2.97,4.71-1.02,7.55c-2.63,1.87-2.95,3.15-0.89,5.96c2.8,3.81,5.72,7.31,9.64,9.95c0.85,0.56,1.26,1.5,1.9,2.23
			c0.44,0.44,0.93,0.84,1.44,1.2c1.06,0.72,2.13,1.42,3.04,2.33c0.9,0.96,1.94,1.74,3.09,2.38c1.84,1.29,3.82,2.4,5.52,3.88
			c2.24,1.96,4.24,2.61,6.02-0.52c0.31-0.54,0.85-0.91,1.56-0.83c0.76,0.37,0.92,1.07,1.02,1.81c0.77,1.87-0.41,3.06-1.48,4.38
			c1.12,0.76,2.87,1.02,2.93,2.92c-0.38,0.73-1.08,0.86-1.79,0.96c-4.45-0.14-4.95,3.63-5.93,6.48c-0.96,2.78-0.15,5.5,2.53,7.3
			c4.45,2.99,7.55,6.73,6.61,12.52C591.1,211.2,593.2,211.28,593.05,212.69z"/>
		<path class="st3" d="M521.87,210.68c1.52,0.52,1.2,3.01,3.22,3c0.74-0.41,0.97,0.22,1.31,0.63c0.32,0.41,0.7,0.27,1.08,0.13
			c1.01-0.09,2.13,0.32,2.93-0.68c1.68-0.54,2.07,1,2.9,1.81c2.06,2,3.72,4.41,6.28,5.83c2.27-2.48,0.92-5.49,1.25-8.25
			c0.23-1.31-0.2-2.96,1.75-3.36c0.31,1.59-0.63,3.42,0.92,4.78c1.33,1.84,0.76,3.85,0.51,5.82c-0.16,1.25-0.49,2.48,0.02,3.71
			c0.34,0.82,0.75,1.73,1.75,1.77c0.9,0.03,1.01-0.94,1.39-1.57c1.82-3.02,1.37-6.51,2.07-9.76c1.26-0.03,2.52-0.12,3.78-0.08
			c5.96,0.21,9.28,3.5,9.4,9.51c0.1,5.17,0.09,10.35-0.01,15.52c-0.04,2.22,0.28,4.26,1.56,6.1c0.16,0.94,0.99,2.15-0.33,2.68
			c-3.27,1.32-1.14,2.4,0.18,3.13c2.66,1.47,5.22,3.13,7.97,4.43c1.27,0.6,2.76,2.15,4.05,0.47c1.1-1.42,2.35-3.12,1.32-5.21
			c-0.22-0.45-0.49-0.88-0.53-1.41c1.05-0.41,0.44-1.14,0.34-1.78c0.1-0.07,0.2-0.16,0.31-0.21c1.05-0.53,2.91,0.26,3.17-1.33
			c0.29-1.8-1.99-0.99-2.67-1.97c0.23-0.32,0.46-0.63,0.69-0.95c2.84-0.85,4.64,0.13,5.31,3.05c-0.88,3.7,2,4.24,4.37,5.12
			c3.45,1.27,6.95,2.41,10.29,3.92c2.81,1.27,4.75,0.85,6.45-1.77c0.76-1.18,1.42-2.78,3.3-2.75c0.06,0.73,0.26,1.36,1.01,1.67
			c0.19,0.34,0.23,0.7,0.21,1.08c-0.06,1.57-2.47,2.74-1.14,4.35c1.02,1.23,3.03,0.97,4.53,1.55c1.19,0.46,2.89,0.19,3.19,2.05
			c-1.23,1.29-2.7,0.84-4.14,0.56c-1.31-0.25-2.59-0.88-3.93-0.12c-3.63-0.62-6.22,0.98-8.31,4.07c1.58,1.56,4.41,0.68,5.75,2.7
			c-0.3,1.39-0.31,2.8-0.21,4.21c-15.73-1.48-29.99-7.19-43.24-15.49c-17.2-10.78-30-25.58-38.92-43.76
			C522.51,212.86,522.24,211.74,521.87,210.68z"/>
		<path class="st4" d="M524.42,156.75c1.01-2.31,2.03-4.62,1.22-7.23c-0.76-1.67,0.3-2.95,1.02-4.22c1.95-3.4,3.87-6.85,6.38-9.88
			c1.81-2.18,2.29-4.35,1.19-7c-0.82-1.98-1.27-4.1-1.59-6.24c-2.11,2.89-3.99,5.99-6.11,8.92c-0.74,1.03-1.13,2.68-2.98,2.41
			c-0.05-0.71-0.29-1.3-1-1.59c-0.24-0.93,0.29-1.74,0.42-2.61c1.57-2.89,3.29-5.71,5.42-8.19c2.23-2.58,3.69-5.39,3.97-9.14
			c-4.14,5.01-5.76,11.16-9.21,16.24c-0.31,0.22-0.64,0.31-1.02,0.24c-0.12-0.81-0.37-1.53-1.19-1.9
			c7.11-17.27,17.9-31.71,33.05-42.77c0.05,0.57-0.64,1.06,0.62,1.6c1.85,0.8,0.26,1.24-0.58,1.8c-1.62,1.07-4.96,1.9-0.99,4.38
			c0.53,0.33,0.04,1.15-0.52,1.56c-7.84,4.04-14.58,9.03-16.24,19.04c0.73-1.52,1.63-2.17,2.6-2.73c1.08-0.39,1.95-1.07,2.71-1.92
			c0.28-0.18,0.59-0.24,0.92-0.2c0.31,0.77,0.96,1.02,1.72,1.09c0.33,1.52-0.81,2.3-1.67,3.18c-7.11,7.23-7.12,7.23-3.85,16.73
			c1.01-0.65,1.57-2.12,3.12-1.73c0.3,0.8-0.87,1.69,0.16,2.45c-2.06,3.93,0.18,7.06,1.9,10.3c0.61,1.8,2,3.2,2.58,5.01
			c-0.28,0.78-0.57,1.56-0.85,2.34c-3.33-0.92-4.18-4.09-5.78-6.52c-2.43-3.68-2.51-3.75-4.97-0.16c-1.85,2.71-3.42,5.6-5.15,8.38
			c-1.97,3.16-2.45,6.26-0.37,9.52c0.11,0.56,0.07,1.09-0.31,1.56c-0.75,0.36-0.9,1.06-1,1.79
			C525.85,160.54,525.23,158.57,524.42,156.75z"/>
		<path d="M605.17,273.13c-1.65-1.36-2.23-2.68,0.19-3.84c0.8-0.84,1.85-0.88,2.81-0.63c4.18,1.07,7.62-0.46,11.29-3.13
			c-2.91-0.57-5.45-1.05-7.93-1.77c-1.29-0.37-2.82-0.44-3.31-2.1c-0.31-0.8-0.57-1.46,0.82-1.08c2.29,0.63,4.55,1.5,7,1.08
			c0.58-0.61,1.37-0.78,2.08-0.58c3.63,1,7.11,0.68,10.5-0.93c0.69,0.07,1.35,0.18,1.73,0.87c0.29,1.62,1.3,2.07,2.87,2.12
			c1.93,0.07,3.93,0.21,5.51,1.63c1.31,1.83,5.05-0.64,5.32,3.01c1.18,0.67,2.62-0.52,3.74,0.54c-1.24,3.15-4.97,1.35-6.76,3.42
			C629.18,274.66,617.21,274.89,605.17,273.13z"/>
		<path class="st4" d="M518.14,134.13c-0.39,4.06-1.1,8.02-3.33,11.55C515.66,141.76,516.28,137.76,518.14,134.13z"/>
		<path class="st5" d="M695.6,242.54c1.4-1.45,2.79-2.9,4.19-4.35C699.16,240.38,697.72,241.78,695.6,242.54z"/>
		<path class="st5" d="M689.04,248.76c0.71-1.19,1.78-1.96,2.95-2.63C691.68,247.76,690.7,248.64,689.04,248.76z"/>
		<path class="st4" d="M513.56,154.7c-0.08,1.61,0.62,3.32-0.58,4.8C512.86,157.86,512.81,156.23,513.56,154.7z"/>
		<path class="st4" d="M514.34,149.42c-0.06,1.35,0.55,2.82-0.66,3.98C513.53,152.02,513.63,150.67,514.34,149.42z"/>
		<path class="st6" d="M564.41,163.18c1.15-1.66,1.41-3.91,3.31-5.08c2.08-1.28-1.77-2.6,0.04-3.87c-0.28-1.13-1.15-2.39,0.66-3.06
			c0.38,1,0.01,2.51,1.43,2.82c1.25,0.27,1.56-1.09,2.16-1.83c1.6-1.97,2.94-4.19,4.74-5.95c2.19-2.14,1.55-3.59-0.56-5.06
			c0.26-0.53,0.53-1.06,0.79-1.59c1.79-0.48,3.54,0.24,5.32,0.17c0.05,0.71,0.28,1.3,1,1.59c-1.13,1.43-0.94,2.5,0.61,3.61
			c4.14,2.98,8.18,6.11,12.26,9.18c-0.72,0.1-1.41,0.25-1.77,1c-4.36-2.1-7.96-5.3-11.67-8.3c-1.89-1.52-2.86-1.32-4.1,0.57
			c-2.2,3.36-5.23,6.12-7.08,9.74c-0.43,2.42-1.94,4.05-3.88,5.37l0.03-0.04c-0.71,0.95-0.8,2.18-1.45,3.16
			C565.21,165.14,565.66,163.52,564.41,163.18z"/>
		<path class="st7" d="M645.23,98.76c0.26,2.06-1.93,3.21-0.14,4.77c0.51,0.45,0.18,2.09-0.6,2.3c-6.13,1.63-4.79,6.41-4.66,10.69
			c0.01,0.34,0.13,0.68,0.31,1.57c-2.02-1.01-3.67-1.8-5.29-2.66c-4.29-2.26-4.51-2.6-1.19-5.95
			C637.24,105.87,640.57,101.92,645.23,98.76z"/>
		<path class="st7" d="M615.59,105.22c-0.78,2.35-2.17,3.9-4.35,3.91c-1.99,0.01-3.45,0.27-4.23,2.28c-0.37,0.96-1.4,1.43-2.17,1.04
			c-1.17-0.59-0.82-2.09-0.22-2.63c2.33-2.12,2.88-4.52,2.06-7.49c-0.48-1.72,0.87-2.42,2.21-3.02c1.64-0.74,2.36,0.38,2.99,1.48
			C612.84,102.52,614.98,103.34,615.59,105.22z"/>
		<path class="st5" d="M627.47,97.03c-2.42,2.08-4.71,4.31-7.52,5.91c-1.38,0.79-2.41,1.08-3.52-0.39
			c-1.17-1.56-3.85-2.74-3.25-4.66c0.53-1.7,3.2-2.25,5.17-2.39c1.7-0.12,3.41-3.01,5.16-0.13
			C624.21,97.39,626.36,95.97,627.47,97.03z"/>
		<path class="st8" d="M579.9,72.49c-1.2,3.43-3.18,5.2-6.42,6.02c-4.13,1.05-8.02,2.84-11.79,4.85c-3.72-0.81,0.45-1.65-0.01-2.48"
			/>
		<path class="st9" d="M654.78,113.47c-0.27,1.64-0.44,2.62-0.59,3.59c-1.07,6.87-1.08,6.9-7.26,4.09c-0.77-0.35-2.3-0.25-1.84-1.83
			c0.29-1.02,0.25-2.16,1.73-2.64"/>
		<path class="st10" d="M642.92,97.22c-2.61,2.48-5.02,4.77-7.93,7.53c0.22-3.42,2.08-5.77,1.23-8.73
			c-0.34-1.17,1.73-1.98,3.14-1.31C640.58,95.29,641.61,96.28,642.92,97.22z"/>
		<path class="st11" d="M618.21,129c0.6,0.67,1.35,0.49,2.07,0.32c1.36-0.33,2.19-2.85,3.78-1.52c1.86,1.56,1.28,5.71-0.68,7.77
			c-3.54,0.07-4.29-3.12-6.03-5.16C617.31,129.75,617.57,129.26,618.21,129z"/>
		<path class="st12" d="M643.3,86.4c4.54-0.87,6.58,2.61,9.12,5.24c-1.24,0-2.48,0-3.72,0c-1.73-0.01-3.44-0.65-5.18-0.12
			c-1.22,0.26-2.32,0.06-3.22-0.88c-0.21-0.29-0.32-0.62-0.33-0.99c0.4-1.19,2.01-1.01,2.44-2.17
			C642.64,87.05,642.96,86.71,643.3,86.4z"/>
		<path class="st13" d="M632.8,106.91c-0.48,0.57-0.96,1.14-1.43,1.72c-0.98,1.21-1.24,3.75-3.7,2.39
			c-2.54-1.41-4.96-3.03-4.31-6.65c0.18-1,0.52-1.76,1.51-1.79c1.07-0.04,0.81,1,1.01,1.67c1.41,4.79,1.96,5.06,5.03,2.54
			c0.58-0.29,0.91-1.11,1.76-0.82c0.17,0.19,0.25,0.39,0.23,0.6C632.88,106.8,632.85,106.91,632.8,106.91z"/>
		<path class="st13" d="M695.86,132.1c-0.09,1.4,0.8,3.28-1.37,3.78c-2.15,0.5-1.7-1.69-2.38-2.7c-0.35-0.51-0.45-1.18-0.76-1.72
			c-0.86-1.51-0.73-2.9,0.57-4.05c0.54-0.47,1.35-1.14,2.01-0.55c1.04,0.94,2.24,1.97,1.12,3.72c-0.15,0.24,0.53,1.01,0.83,1.54
			C695.88,132.13,695.86,132.1,695.86,132.1z"/>
		<path class="st14" d="M614.37,122.73c1.36,0.9,4.11,1.43,3.37,3.18c-0.86,2.05-2.01,4.66-4.86,5.22
			c-0.25-1.29-1.14-2.42-0.97-3.82c-0.36-1.2,1.75-2.79-0.57-3.69C611.84,121.57,613.29,122.77,614.37,122.73z"/>
		<path class="st15" d="M691.08,109.14c-6.23,0.75-7.42-4.46-10.43-7.14C685.18,102.57,687.69,105.94,691.08,109.14z"/>
		<path class="st16" d="M681.82,112.13c-1.35-1.98-2.72-3.94-4.03-5.94c-0.43-0.66-1.41-1.41-0.25-2.21
			c0.97-0.67,1.59,0.13,2.26,0.72C683.77,108.18,684.08,109.3,681.82,112.13z"/>
		<path class="st17" d="M617.34,130.42c2.76,0.84,3.26,4.32,6.03,5.16c-0.25,0.68-0.51,1.35-0.76,2.03
			c-1.35-0.69-2.65-1.5-4.05-2.04C615.58,134.41,615.04,132.78,617.34,130.42z"/>
		<path class="st18" d="M559.88,98.38c-1.59,1.81-3.19,3.62-5.02,5.7c-2.26-4.21,1.85-4.4,3.07-6.18
			C558.54,98.25,559.72,96.25,559.88,98.38z"/>
		<path class="st19" d="M623.92,86.95c0.05-0.54,0.35-0.78,0.88-0.74c1.3-0.41,2.58-0.75,2.97,1.16c-0.03,0.44-0.2,0.83-0.5,1.16
			c-0.44,0.05-0.88,0.1-1.32,0.15c-1.44,0.39-2.35,2.25-4.19,1.54c-0.96-0.57-0.49-1.52-0.62-2.32
			C621.4,85.66,622.9,86.98,623.92,86.95z"/>
		<path class="st20" d="M634.87,83.25c2.02-1.32,3.73-0.57,5.36,0.8c-0.41,0.92-2.61,0.52-1.77,2.38c-0.26,0.46-0.58,0.8-1.18,0.62
			C635.38,86.47,633.45,85.92,634.87,83.25z"/>
		<path class="st21" d="M678.49,143.45c-1.06-0.25-2.12-0.49-3.18-0.74c-0.61-2.17-0.55-4.25,0.82-6.15c0,0-0.06,0.07-0.06,0.07
			C680.2,137.72,678.35,140.94,678.49,143.45z"/>
		<path class="st15" d="M688.63,116.36c1.63,3.18,1.35,5.82,2.71,7.87c0.31,0.47-0.11,0.91-0.67,1.07c-0.74,0.21-1.2-0.16-1.51-0.76
			C688,122.25,688.27,119.89,688.63,116.36z"/>
		<path class="st22" d="M608.17,67.14c-4.81,1.63-9.79,0.23-14.67,0.83c-0.52,0.06-0.98-0.28-0.53-0.91
			c0.41-0.57,1.01-0.66,1.66-0.5c3.24,0.49,6.46-0.45,9.7-0.11C605.65,66.45,606.98,66.38,608.17,67.14z"/>
		<path class="st23" d="M604.39,67.02c-3.25-0.2-6.56,0.89-9.76-0.47c2.48-0.43,4.93-1.17,7.5-0.84
			C602.62,66.61,604.39,65.29,604.39,67.02z"/>
		<path d="M653.99,231.22c2.57-0.03,5.14-0.05,7.64,0.7C658.97,232.87,656.3,233.99,653.99,231.22z"/>
		<path class="st24" d="M640.26,90.08c1.01,0.28,2.03,0.56,3.04,0.84c0.46,0.48,0.46,0.96,0,1.44c-0.17,0.94,0.17,2.6-1.68,1.23
			c-0.78-0.58-1.52-1.23-2.27-1.84C639.08,90.88,639.5,90.39,640.26,90.08z"/>
		<path class="st16" d="M627.47,97.03c-1.36-0.46-3.53,1.01-3.97-1.66c2.47,2.12,3.96,0.34,5.45-1.39c0.14-0.47,0.41-0.57,0.81-0.28
			C631.36,95.73,631.34,95.75,627.47,97.03z"/>
		<path class="st25" d="M687.65,139.03c-0.31-2.2-0.64-4.4,0.81-6.38c2.1,0.73,1.87,2.37,0.84,3.51
			C688.5,137.06,688.35,138.17,687.65,139.03z"/>
		<path class="st26" d="M629.51,77.86c-1.86,1.83-4.07,0.33-6.09,0.52c-0.57,0.05-1.04-1.62-0.65-2.48c0.2-0.44,1.13-0.12,1.62,0.35
			C625.67,78.13,627.92,76.96,629.51,77.86z"/>
		<path class="st27" d="M637.28,87.04c0.24-0.29,0.48-0.58,0.72-0.88c0.82-0.54,1.61-0.51,2.36,0.13c0.21-0.02,0.41-0.03,0.62-0.04
			c0.03,0.82,0.51,1.42,0.96,2.05c-0.44,0.82-1.3,0.53-1.96,0.79c-1.03,0.39-1.94,0.2-2.75-0.54
			C637.24,88.05,637.26,87.55,637.28,87.04z"/>
		<path class="st28" d="M611.71,162.69c2.7-0.22,4.53,2.48,7.25,2.17c0.1,1.59-0.87,1.22-1.69,0.84
			C615.36,164.81,613.31,164.16,611.71,162.69z"/>
		<path class="st29" d="M627.27,85.47c1.53-1.09,3.03-1.07,4.41,0.23c1.1,1.04,0.72,1.72-0.64,2.05c-0.78-0.29-1.6-0.49-2.32-0.95
			C628.14,86.47,627.65,86.03,627.27,85.47z"/>
		<path class="st30" d="M604.39,67.02c-0.75-0.44-1.5-0.87-2.26-1.31c2.08,0.21,4.63-1.63,6.04,1.43
			C606.91,67.1,605.65,67.06,604.39,67.02z"/>
		<path class="st31" d="M637.22,88.56c1,0.05,2,0.1,3,0.16c0.3,0.12,0.4,0.25,0.32,0.4c-0.09,0.16-0.18,0.24-0.27,0.24
			c-0.05,0.24-0.05,0.49,0,0.73c-0.3,0.56-0.61,1.11-0.91,1.67C638.22,90.97,636.73,90.42,637.22,88.56z"/>
		<path class="st32" d="M629.51,77.86c-1.63-0.03-3.27,0.05-4.88-0.13c-1.24-0.14-0.9-0.86-0.25-1.49
			C626.16,76.58,628.08,76.44,629.51,77.86z"/>
		<path class="st33" d="M611.92,127.31c1.01,1.1,2.65,2.04,0.97,3.82C611.08,130.23,610.17,129.1,611.92,127.31z"/>
		<path class="st34" d="M643.3,92.36c0-0.48,0-0.96,0-1.44c1.81,0.15,3.86-1.48,5.4,0.71C647.09,93.28,644.93,90.85,643.3,92.36z"/>
		<path class="st35" d="M647.8,268.33c-1.25-0.13-2.76,1.46-3.74-0.54c0.72-0.3,1.44-0.6,2.16-0.9c1.09,0.11,2.54-1.09,3.12,0.86
			C648.82,267.94,648.31,268.14,647.8,268.33z"/>
		<path class="st36" d="M629.15,66.13c-1.26,0.52-2.46,0.74-3.58-0.13c-0.14-0.11-0.06-0.85,0.1-0.92
			C627.08,64.43,628.3,64.59,629.15,66.13z"/>
		<path class="st37" d="M621.15,81.69c-1.4,0.17,1.43,3.55-1.73,2.3c-0.48-0.19-1.15-1.07-1.04-1.38c0.51-1.41,1.74-1.06,2.85-0.86
			L621.15,81.69z"/>
		<path class="st38" d="M635.66,69.56c-1.49-0.57-2.98-1.13-4.47-1.7c2.11-1.08,3.73-0.23,5.31,0.85
			C636.41,69.17,636.13,69.46,635.66,69.56z"/>
		<path class="st39" d="M692.14,111.49c1.49,0.48,0.43,2.41,1.7,3.01c-1.43,2.11-2.11-0.09-2.74-0.66
			C689.44,112.34,692.61,112.66,692.14,111.49z"/>
		<path class="st40" d="M649.34,267.75c-0.76-1.29-2.11-0.47-3.12-0.86c1.76-1.11,3.65-0.42,5.66-0.66
			C651.31,267.64,650.34,267.73,649.34,267.75z"/>
		<path class="st41" d="M671.55,83.88c-0.06,0.91-0.31,2.02-1.42,1.5c-1.84-0.86,0.6-2.01,0.03-3.06
			C671.3,82.24,671.66,82.84,671.55,83.88z"/>
		<path class="st42" d="M628.72,86.38c1.07-0.04,1.97,0.2,2.32,1.37c-1.16,0.72-2.37,1.22-3.77,0.77c0.04-0.17,0.08-0.35,0.11-0.53
			C627.66,87.32,627.94,86.64,628.72,86.38z"/>
		<path class="st43" d="M632.55,76.98c-0.38,1.92,1.47,2.22,2.34,3.23c-0.96,0.34-1.7,1.74-2.97,0.63
			C631.87,79.51,631.4,78.12,632.55,76.98z"/>
		<path class="st44" d="M651.79,262.69c1.4,1.28,3.18,0.07,4.68,0.7c-1.45,0.99-3.17,0.59-4.75,0.9c-0.54,0.1-1.13-0.09-1.01-0.67
			C650.77,263.26,651.41,263,651.79,262.69z"/>
		<path class="st45" d="M614.37,122.73c-1.06,0.12-2.31-0.4-3.03,0.89c-0.72-0.16-1.44-0.33-2.94-0.67
			C610.88,122.15,612.56,121.46,614.37,122.73z"/>
		<path class="st46" d="M621.76,90.22c1.45-0.38,2.41-2.07,4.19-1.54C625.11,90.71,623.7,91.2,621.76,90.22z"/>
		<path class="st47" d="M676.67,87.82c-1.91-0.51-3.11-1.72-3.63-3.62C674.72,84.94,675.77,86.3,676.67,87.82z"/>
		<path class="st48" d="M589.15,213.56c0.72,0.06,1.44,0.12,2.16,0.17c0.31,1.84-1.03,1.15-1.9,1.3c-0.75,0.13-1.34,0.01-1.38-0.78
			C588,213.64,588.69,213.66,589.15,213.56z"/>
		<path class="st49" d="M628.72,86.38c-0.45,0.54-0.89,1.07-1.34,1.61c-0.13-1.65-1.32-1.76-2.58-1.79
			c0.82-0.24,1.65-0.49,2.47-0.73C627.76,85.77,628.57,85.55,628.72,86.38z"/>
		<path class="st16" d="M630.14,69.71c1.5,0.94,2.83,0.84,3.17,2.22c0.03,0.14-0.31,0.53-0.41,0.51
			C631.77,72.2,630.58,72.01,630.14,69.71z"/>
		<path class="st37" d="M629.76,93.7c-0.27,0.09-0.54,0.19-0.81,0.28c-0.26-0.22-0.48-0.57-0.78-0.65
			c-0.79-0.22-2.01-0.17-1.25-1.45c0.4-0.68,1.34-0.52,1.87,0.22C629.16,92.6,629.44,93.16,629.76,93.7z"/>
		<path class="st50" d="M661.54,109.08c0.11,1.53-0.76,1.82-2.04,1.61c-0.27-0.03-0.54-0.05-0.81-0.08
			c-0.88-1.04-0.44-1.51,0.72-1.68C660.13,108.98,660.83,109.03,661.54,109.08z"/>
		<path class="st51" d="M632.52,106.12c-0.53,0.23-1.07,0.45-1.6,0.68c0.33-1.27-0.69-3.09,1.47-3.61
			C633.38,104.12,633.2,105.11,632.52,106.12z"/>
		<path class="st52" d="M625.77,119.84c0.28,0.26,0.57,0.52,0.85,0.78c0.32,0.83,0.54,1.65-0.22,2.39
			C622.48,122.69,625.88,120.91,625.77,119.84z"/>
		<path class="st17" d="M623.95,138.27c1.95,0.1,3.64,0.71,4.8,2.4C626.95,140.26,625.35,139.46,623.95,138.27z"/>
		<path class="st53" d="M642.47,69.61c-0.7-0.38-1.4-0.76-2.6-1.42c1.85-0.31,3.08-0.66,4.12,0.55
			C643.73,69.45,643.34,69.94,642.47,69.61z"/>
		<path class="st28" d="M603.38,158.09c1.77,0.06,3.32,0.5,4.01,2.38C605.99,159.79,604.49,159.27,603.38,158.09z"/>
		<path class="st54" d="M628.78,73.39c1.05-0.3,1.89-0.13,2.42,1.01c-1.22,0.92-2.28,0.54-3.31-0.17
			C627.97,73.71,628.48,73.66,628.78,73.39z"/>
		<path class="st55" d="M632.52,106.12c-0.04-0.98-0.09-1.96-0.13-2.94c0.85,1.16,2.94,2.19,0.41,3.73
			C632.71,106.65,632.61,106.39,632.52,106.12z"/>
		<path class="st56" d="M588.45,132.84c-0.53-1.09-0.11-1.8,0.31-2.51c0.28,0.17,0.71,0.28,0.81,0.52
			C590.02,131.96,589.15,132.25,588.45,132.84z"/>
		<path class="st57" d="M629.33,99.32c0.53,0.05,1.09,0.25,0.84,0.86c-0.13,0.32-0.75,0.55-1.18,0.62c-0.4,0.07-1.13,0.19-1.07-0.53
			C627.97,99.52,628.69,99.4,629.33,99.32z"/>
		<path class="st50" d="M683.07,141.92c1.25,0.33,0.18,2.09,1.48,2.39c-0.3,0.62-0.48,1.34-1.33,1.61
			C682.61,144.57,683.15,143.23,683.07,141.92z"/>
		<path class="st58" d="M687.97,102.54c-2-0.4-2.67-1.27-3.46-2.36C686.11,100.06,686.88,100.84,687.97,102.54z"/>
		<path class="st59" d="M626.4,123c0.07-0.8,0.14-1.59,0.22-2.39c0.93,1.8,1.45,3.59-0.19,5.3
			C626.67,124.94,626.96,123.97,626.4,123z"/>
		<path class="st46" d="M613.24,94.91c-0.85,0.42-1.33,0.68-1.83,0.88c-0.57,0.23-0.96-0.04-0.95-0.62
			c0.01-0.74,0.74-0.95,1.25-1.07C612.02,94.03,612.47,94.49,613.24,94.91z"/>
		<path class="st60" d="M659.42,108.93c-0.87,0.29-0.89,0.94-0.72,1.68c-1.33-0.73-1.4-1.79-0.32-2.63
			C659.12,107.41,659.31,108.33,659.42,108.93z"/>
		<path class="st61" d="M626.06,115.61c-0.17-0.67-0.37-1.1-0.35-1.52c0.03-0.5,0.31-1,0.93-0.91c0.57,0.09,0.84,0.54,0.56,1.07
			C626.97,114.68,626.58,115.01,626.06,115.61z"/>
		<path class="st34" d="M635.66,69.56c0.28-0.28,0.56-0.57,0.84-0.85c0.75,0.29,2.15,0.61,1.67,1.38
			C637.59,71.01,636.39,70.37,635.66,69.56z"/>
		<path class="st62" d="M631.92,80.84c1.16,0.58,1.91-0.77,2.97-0.63c0.03,0.84-1.19,1.27-0.75,2.25
			C633.35,82,632.25,81.96,631.92,80.84z"/>
		<path class="st63" d="M642.47,69.61c0.51-0.29,1.01-0.58,1.52-0.88c0.8-0.09,1.41,0.54,1.04,1.02
			C644.31,70.68,643.3,70.35,642.47,69.61z"/>
		<path class="st59" d="M628.78,73.39c-0.3,0.28-0.59,0.56-0.89,0.84c-0.7-0.08-1.39-0.15-2.09-0.23c-0.45-0.33-1.2-0.5-0.72-1.33
			C626.31,72.9,627.55,73.14,628.78,73.39z"/>
		<path class="st64" d="M621.23,81.75c-0.41-0.66-0.77-1.36,0.42-1.52c0.51-0.07,1.38-0.23,1.24,0.72
			c-0.15,0.97-1.03,0.79-1.74,0.75C621.15,81.69,621.23,81.75,621.23,81.75z"/>
		<path class="st11" d="M622.16,126.05c-1.09,0.68-2.19,1.37-3.28,2.05C619.15,126.09,620.47,125.77,622.16,126.05z"/>
		<path class="st49" d="M623.92,86.95c-1,0.12-2.11-0.1-2.78,0.96c-0.36-0.33-0.89-0.82-0.46-1.19
			C621.75,85.8,622.89,86.14,623.92,86.95z"/>
		<path class="st65" d="M650.8,70.57c-0.28,0.07-0.62,0.26-0.89,0.19c-0.45-0.13-0.91-0.41-0.77-0.99c0.03-0.12,0.43-0.24,0.65-0.21
			C650.31,69.61,650.75,69.82,650.8,70.57z"/>
		<path class="st66" d="M597.61,76.39c-0.13-0.23-0.16-0.46-0.08-0.71c0.3-0.61,0.8-0.87,1.46-0.74c0.15,0.03,0.39,0.35,0.35,0.43
			C599,76.09,598.39,76.4,597.61,76.39z"/>
		<path class="st59" d="M631.88,116.79c-1.07-0.27-2.14-0.55-3.2-0.82C630.27,114.2,630.99,115.82,631.88,116.79z"/>
		<path class="st67" d="M625.08,72.66c0.24,0.44,0.48,0.89,0.72,1.33c-0.72,0.2-1.55,0.29-1.81-0.51
			C623.72,72.67,624.44,72.59,625.08,72.66z"/>
		<path class="st13" d="M710.81,153.05c-0.46-2.07-2.5-4.03,0.17-6.07c1.01-0.78,1.77-1.83,3.23-1.1c0.85,0.42,1.64,1.1,1.36,2.01
			c-0.37,1.2-0.14,3.32-1.84,3.24C712.01,151.04,712.15,152.9,710.81,153.05z"/>
		<path class="st16" d="M714.7,170.47c0.11-3.16-3.65-6.89,1.98-9.6C715.99,164.57,718.1,168.02,714.7,170.47z"/>
		<path class="st68" d="M669.69,183.82c-2.2,1.8-4.61,2.45-6.12,4.9C663.05,182.64,663.51,182.27,669.69,183.82z"/>
		<path class="st69" d="M719.37,184.04c-1.77-0.8-1.21-2.51-1.55-3.88c-0.31-1.24-0.77-2.45-1.21-3.81
			c3.32,1.26,3.32,1.26,3.89,6.55C720.76,183.92,720.29,184.21,719.37,184.04z"/>
		<path class="st49" d="M677.66,172.53c0.04-0.35,0.07-0.71,0.11-1.06c0.8-0.29,1.62-0.83,2.41-0.81c0.87,0.02,2.05-0.7,2.64,0.53
			c0.18,0.38,0.1,1.02-0.1,1.42c-0.57,1.12-1.69,0.89-2.62,0.76C679.26,173.24,678.47,172.82,677.66,172.53z"/>
		<path class="st70" d="M702.77,159.52c-0.28,0.32-0.56,0.65-0.84,0.97c-2.39-0.62-2.9-2.42-2.98-5.01
			C700.91,156.53,702.86,156.97,702.77,159.52z"/>
		<path class="st71" d="M719.37,184.04c0.38-0.38,0.75-0.76,1.13-1.14c0.93,2.12,1.31,4.2-0.5,6.48
			C718.9,187.47,719.98,185.65,719.37,184.04z"/>
		<path class="st72" d="M701.39,162.56c0.93,1.34,0.08,2.25-0.77,3.16C700.57,164.59,698.68,163.02,701.39,162.56z"/>
		<path class="st73" d="M710.29,144.46c-0.65-0.13-0.62-0.67-0.62-1.14c0-0.67,0.2-1.31,1.01-1.29c0.6,0.01,0.77,0.55,0.73,1.07
			C711.34,143.79,710.98,144.27,710.29,144.46z"/>
		<path class="st74" d="M519.03,182.35c9.42,6.37,8.15,15.17,6.49,24.13"/>
		<path class="st75" d="M543.4,139.67c-0.56-0.83-1.08-1.69-1.67-2.48c-2.08-2.79-2.7-5.51,0.25-8.13c0.2,0.04,0.38-0.01,0.54-0.15
			c1.12-0.17,1.16,0.6,1.23,1.38c0.12,1.37-0.27,2.77,0.29,4.1c0.08,1.47,0.15,2.94,0.23,4.4
			C544.54,139.63,544.13,139.8,543.4,139.67z"/>
		<path class="st76" d="M552.55,160.28c-1.1,3.21-2.19,6.42,2.21,8.13c1.34,0.52,0.79,1.67,0.87,2.61c-0.4-0.43-0.97-1.32-1.18-1.24
			c-3.43,1.27-3.35-1.59-4.14-3.42C551.96,164.67,549.57,161.48,552.55,160.28z"/>
		<path class="st77" d="M515.08,177.88c-1.04-2.15-0.77-4.33-0.36-6.85c1.64,0.72,1.35,1.85,1.24,2.91
			c-0.61,0.67,0.07,1.35-0.01,2.02C515.92,176.72,515.78,177.43,515.08,177.88z"/>
		<path class="st60" d="M551.04,112.56c-0.03-1.04-3.29,0.5-1.56-1.95c0.94-0.76,0.94-2.03,1.6-2.95l-0.04,0.04
			c0.3-0.43,0.55-0.41,0.77,0.07c0.26,0.4,0.51,0.8,0.77,1.21C552.38,110.31,551.97,111.54,551.04,112.56z"/>
		<path class="st78" d="M516.63,174.8c1.8,2.44,0.56,5.04,0.41,7.58c-0.09-0.03-0.25-0.04-0.26-0.08c-0.06-0.22-0.07-0.45-0.1-0.68
			c-0.44-0.51-0.7-1.09-0.72-1.77C516.08,178.16,515.46,176.36,516.63,174.8z"/>
		<path class="st3" d="M547.09,211.7c-4.24-2.85-2.22,2.15-3.6,2.88c0.12-1.53-0.95-3.46,0.84-4.46
			C545.61,209.41,546.75,210.16,547.09,211.7z"/>
		<path class="st18" d="M516.55,180.06c0.04,0.52,0.09,1.05,0.14,1.57c-2.5-0.41-0.89-2.58-1.61-3.75c0.08-0.78,0.16-1.56,0.24-2.35
			C517.53,176.55,515.5,178.72,516.55,180.06z"/>
		<path class="st79" d="M544.04,134.38c-1.57-1.53,0.25-4-1.52-5.48c0.53-0.79,1.25-2.2,1.56-0.01
			C544.34,130.68,544.07,132.55,544.04,134.38z"/>
		<path class="st4" d="M522.61,156.39c0.7-1.99,1.03-3.97-0.11-5.93C525.03,152.39,524.94,154.37,522.61,156.39z"/>
		<path class="st46" d="M543.4,139.67c0.29-0.29,0.58-0.59,0.87-0.88c0.27,2.04,2.75,3.21,2.19,5.57
			C544.99,143.09,544.25,141.34,543.4,139.67z"/>
		<path class="st43" d="M551.04,112.56c-0.48-1.62,0.75-2.5,1.53-3.58c1.65,2.15-0.18,3.04-1.5,4.11
			C550.9,112.92,550.89,112.74,551.04,112.56z"/>
		<path class="st80" d="M537.41,164.42c0.17-2.31,0.99-4.28,2.94-5.67C539.83,160.88,538.73,162.71,537.41,164.42z"/>
		<path class="st4" d="M515.23,154.93c0,2.55,0.01,5.1,0.01,7.65C513.9,160.03,513.93,157.48,515.23,154.93z"/>
		<path class="st81" d="M532.68,195.54c1.63,0.8,2.62,2.22,3.58,3.68C534.41,198.63,533.18,197.44,532.68,195.54z"/>
		<path class="st81" d="M538.01,200.94c1.4,1.01,2.81,2.02,3.63,3.61C539.77,204.01,538.55,202.82,538.01,200.94z"/>
		<path class="st82" d="M516.55,180.06c-1.25-1.28-0.01-3.24-1.23-4.52c-0.09-0.65-0.24-1.33,0.64-1.59
			c0.22,0.29,0.45,0.57,0.67,0.86C516.61,176.55,516.58,178.3,516.55,180.06z"/>
		<path class="st83" d="M522.14,128.47c0.2-0.1,0.41-0.19,0.62-0.26c0.65,0.33,0.35,1.16,0.82,1.59c0.15,0.95-0.7,1.41-1.03,2.13
			C519.74,131.09,522.94,129.54,522.14,128.47z"/>
		<path class="st84" d="M525.99,214.99c-0.3-0.44-0.6-0.88-0.9-1.32c0.16-0.76-0.61-2.07,0.68-2.14c1.26-0.07,0.68,1.35,0.97,2.08
			C526.96,214.34,527.32,215.14,525.99,214.99z"/>
		<path class="st7" d="M570.72,168.72c1.53,0.19,3.04,0.39,3.09,2.45C572.62,170.55,571.53,169.82,570.72,168.72z"/>
		<path class="st7" d="M566.27,165.62c-0.22-1.38,0.37-2.38,1.45-3.16c0.02,1.33,0.03,2.67,0.05,4
			C567.27,166.18,566.77,165.9,566.27,165.62z"/>
		<path class="st2" d="M560.9,124.51c-1.74-0.74-2.66,0.61-3.77,1.47C557.62,123.54,558.82,122.91,560.9,124.51z"/>
		<path class="st85" d="M555.7,106.37c-0.84,0.12-0.71-0.36-0.77-0.64c-0.17-0.75,0.18-1.16,0.93-1.09
			c0.32,0.03,1.13-0.29,0.79,0.56C556.45,105.71,555.94,106.09,555.7,106.37z"/>
		<path class="st80" d="M532.51,164.17c1.46,0.45,2.34,1.38,2.48,2.94C533.49,166.7,533.2,165.27,532.51,164.17z"/>
		<path class="st4" d="M521.96,136.63c0.02,1.52,0.04,3.05,0.07,4.57C520.85,139.7,520.89,138.17,521.96,136.63z"/>
		<path class="st4" d="M521.22,160.26c0.06-1.47,0.54-2.79,1.44-3.96c0.08,0.87,0.15,1.73,0.23,2.6c0,0,0.04-0.05,0.04-0.05
			C522.36,159.32,521.79,159.79,521.22,160.26z"/>
		<path class="st7" d="M551.81,107.77c-0.26-0.02-0.51-0.04-0.77-0.07c0.62-1.18,0.8-2.44,0.73-3.75
			C552.51,105.21,553.49,106.48,551.81,107.77z"/>
		<path class="st86" d="M520.38,144.3c-0.49-0.03-0.97-0.05-1.46-0.08c0.28-0.71-0.05-2.03,1.14-1.85
			C520.7,142.46,520.59,143.58,520.38,144.3z"/>
		<path class="st78" d="M525.99,214.99c0.25-0.46,0.5-0.91,0.76-1.37c0.25,0.27,0.49,0.54,0.74,0.81c-0.14,0.59-0.15,1.57-0.45,1.68
			C526.34,216.35,526.03,215.67,525.99,214.99z"/>
		<path class="st87" d="M544.13,123.63c0.05-1.36,0.76-2.13,2.12-2.28C545.94,122.47,545.1,123.11,544.13,123.63z"/>
		<path class="st80" d="M528.79,158.02c1.5,0.48,1.73,1.66,1.63,3c-0.46-0.52-0.93-1.04-1.39-1.56
			C528.95,158.99,528.87,158.5,528.79,158.02z"/>
		<path class="st88" d="M539.57,222.92c2.29-2.76,0.56-6.47,2.22-9.38c0.29,2.88,0.13,5.73-0.6,8.54
			C540.96,222.99,540.81,223.98,539.57,222.92z"/>
		<path class="st89" d="M583.34,265.02c1.77-0.6,3.04,0.28,4.78,1.5c-2.29,0.76-3.72,0.13-5.04-1.02
			C582.92,265.2,582.99,265.04,583.34,265.02z"/>
		<path class="st90" d="M568.5,258.7c2.2-1.09,3.3,0.65,4.68,1.66c-2.01,0.6-3.48-0.17-4.61-1.73L568.5,258.7z"/>
		<path class="st91" d="M544.31,235.62c0.44-0.46,0.88-0.92,1.31-1.39c0.17,1.66,0.35,3.31,0.57,5.43
			C544.48,238.43,544.46,237,544.31,235.62z"/>
		<path class="st92" d="M583.34,265.02c-0.18,0.1-0.27,0.26-0.26,0.48c-1.48,0.03-2.74-0.53-3.87-1.44
			c0.31-0.62,1.04-0.25,1.46-0.61C581.6,263.88,583.12,263.35,583.34,265.02z"/>
		<path class="st88" d="M536.55,222.6c-1.48-0.94-2.71-2.12-3.65-3.61C534.79,219.51,536,220.73,536.55,222.6z"/>
		<path class="st93" d="M568.57,258.63c-1.4,0.18-2.32-0.38-3.11-2.21c1.67,0.5,3.15,0.24,3.04,2.29
			C568.5,258.7,568.57,258.63,568.57,258.63z"/>
		<path class="st94" d="M580.66,263.44c-0.49,0.2-0.97,0.41-1.46,0.61c-0.6-0.14-1.61-0.53-1.3-0.97
			C578.84,261.77,579.69,263.5,580.66,263.44z"/>
		<path class="st44" d="M540.17,234.39c0.81-0.34,0.76-1.17,1.04-1.81c0.69,0.91,1.12,2.07,0.39,2.92
			C541.23,235.94,540.42,235.11,540.17,234.39z"/>
		<path class="st95" d="M599.05,270.08c-0.95-0.14-2.15,0.63-2.96-1.08c1.1,0.19,1.97,0.34,2.84,0.49c0.27,0.08,0.37,0.2,0.32,0.34
			C599.19,270,599.13,270.08,599.05,270.08z"/>
		<path class="st96" d="M599.05,270.08c-0.05-0.2-0.1-0.39-0.13-0.59c0.83,0.27,1.66,0.53,2.58,0.83
			C600.47,271.23,599.71,271.04,599.05,270.08z"/>
		<path class="st97" d="M539.54,109.91c0.78-0.69,1.57-1.38,2.35-2.07C541.69,109.2,540.96,109.95,539.54,109.91z"/>
		<path class="st72" d="M640.17,267.78c-1.79-1.61-4.25-0.14-6.12-1.34c2.13-0.04,4.3-0.35,6.36-0.02
			C641.81,266.65,641.43,267.5,640.17,267.78z"/>
		<path class="st98" d="M670.78,99.15c-1.27-1.11-0.87-2.42,0.31-2.84c1.86-0.67,0.8,1.53,1.56,2.08
			C672.25,99.17,671.29,98.62,670.78,99.15z"/>
		<path class="st99" d="M640.35,86.3c-0.79-0.04-1.57-0.09-2.36-0.13c-0.47-1.98,1.09-1.83,2.23-2.12
			C640.27,84.8,640.31,85.55,640.35,86.3z"/>
		<path class="st100" d="M641.73,87.88c-1.63,0.11-1.23-0.73-0.76-1.62c0.78,0.05,1.55,0.09,2.33,0.14
			c0.01,0.44,0.02,0.88,0.03,1.32C642.84,88.24,642.31,88.27,641.73,87.88z"/>
		<path class="st101" d="M670.78,99.15c0.07-1.61,1.18-0.69,1.88-0.77c0.49,0.5,0.74,1.17,0.05,1.53
			C671.95,100.31,671.35,99.6,670.78,99.15z"/>
		<path class="st102" d="M573.08,160.43c1.1,1.57,2.96,2.55,3.55,4.52c0.53,0.16,0.8,0.55,0.55,1.04c-0.38,0.76-1.02,0.87-1.75,0.43
			c-2.62-0.35-4.07-2.5-6-3.9C569.96,160.63,570.88,159.41,573.08,160.43z"/>
		<path class="st7" d="M573.08,160.43c-1.74-0.21-2.32,1.61-3.65,2.09c-0.58-0.01-1.16-0.02-1.74-0.04c0.9-2.08,2.41-3.71,3.88-5.37
			C571.48,158.49,572.8,159.23,573.08,160.43z"/>
		<path class="st7" d="M575.43,166.42c0.83-0.14,1.7-0.24,1.2-1.47c0.84,0.22,1.27,0.83,0.82,1.55
			C576.86,167.43,576.08,167.18,575.43,166.42z"/>
		<path class="st103" d="M568.43,151.17c-0.92,0.87-0.31,2.07-0.66,3.06c-0.7-1.57-1.44-3.13-2.07-4.72
			c-0.3-0.76-0.95-1.85,0.12-2.32c1.2-0.53,1.31,0.84,1.68,1.54C567.89,149.5,568.12,150.35,568.43,151.17z"/>
		<path class="st104" d="M562.09,145.11c1.28-0.4,2.25-0.27,2.29,0.48c0.08,1.51-0.81,0.56-1.33,0.29
			C562.75,145.74,562.52,145.47,562.09,145.11z"/>
		<path class="st105" d="M676.13,136.56c-0.07,2.08,0.65,4.26-0.82,6.15c-4,0.59-2.18-2.45-2.05-3.82
			C673.36,137.81,674.52,136.55,676.13,136.56z"/>
		<path class="st63" d="M693.47,161.16c1.29,1.1,1.09,2.25,0.98,4.01C693.28,163.75,692.69,162.8,693.47,161.16z"/>
		<path class="st81" d="M621.9,99.99c-3.69-3.23-3.69-3.23-0.04-4.53C622.61,96.96,622.55,98.47,621.9,99.99z"/>
		<path class="st16" d="M621.9,99.99c-0.01-1.51-0.03-3.02-0.04-4.53C623.22,96.96,623.12,98.47,621.9,99.99z"/>
		<path class="st106" d="M641.73,87.88c0.53-0.05,1.06-0.1,1.6-0.15c-0.01,2.45-1.98,1.21-3.06,1.63c0-0.21-0.02-0.43-0.05-0.64
			C640.75,88.49,641.51,88.68,641.73,87.88z"/>
		<path class="st107" d="M548.85,113.51c-0.94,1.51-0.53,3.1-2.09,3.8c-0.13,0.06-0.79-0.6-0.75-0.67
			C546.59,115.55,546.7,114.07,548.85,113.51z"/>
		<path class="st7" d="M551.08,107.66c-0.42,1.05,0.09,2.59-1.6,2.95C549.66,109.43,549.98,108.34,551.08,107.66z"/>
	</g>
</g>
</svg>
