<?xml version="1.0" encoding="UTF-8"?>
<svg id="LOGOTIPO_2" data-name="LOGOTIPO 2" xmlns="http://www.w3.org/2000/svg" viewBox="0 0 1826.82 279.71">
  <defs>
    <style>
      .cls-1, .cls-2 {
        stroke-width: 0px;
      }

      .cls-3 {
        stroke-linecap: round;
      }

      .cls-3, .cls-4 {
        fill: none;
        stroke: #000;
        stroke-miterlimit: 10;
        stroke-width: 2px;
      }

      .cls-2 {
        fill: #231f20;
      }
    </style>
  </defs>
  <path class="cls-1" d="m226.94,255.41c-17.98,0-34.49-2.87-49.54-8.61-15.05-5.74-28.16-13.91-39.31-24.53-11.16-10.61-19.82-23.06-25.99-37.36-6.17-14.29-9.26-29.99-9.26-47.1s3.09-32.81,9.26-47.1c6.17-14.29,14.89-26.74,26.15-37.36,11.26-10.61,24.47-18.79,39.63-24.53,15.16-5.74,31.83-8.61,50.03-8.61,20.14,0,38.28,3.36,54.41,10.07,16.13,6.72,29.72,16.46,40.77,29.24l-33.78,31.19c-8.23-8.66-17.22-15.11-26.96-19.33-9.75-4.22-20.36-6.33-31.83-6.33s-21.12,1.74-30.21,5.2c-9.1,3.47-16.95,8.45-23.55,14.94-6.61,6.5-11.69,14.19-15.27,23.06-3.57,8.88-5.36,18.73-5.36,29.56s1.79,20.36,5.36,29.24c3.57,8.88,8.66,16.62,15.27,23.23,6.6,6.61,14.4,11.64,23.39,15.11,8.98,3.47,18.89,5.2,29.72,5.2s20.52-1.67,30.37-5.04c9.85-3.36,19.43-9.04,28.75-17.05l29.89,38.01c-12.34,9.31-26.69,16.46-43.04,21.44-16.35,4.98-32.65,7.47-48.89,7.47Zm43.85-35.73v-85.43h48.08v92.26l-48.08-6.82Z"/>
  <path class="cls-1" d="m450.76,254.11c-19.93,0-37.41-3.9-52.46-11.69-15.05-7.8-26.69-18.46-34.92-32-8.23-13.53-12.34-28.96-12.34-46.29s4.06-33.08,12.18-46.62c8.12-13.53,19.22-24.15,33.3-31.83,14.07-7.68,29.99-11.53,47.75-11.53s32.54,3.63,46.29,10.88c13.75,7.26,24.63,17.65,32.65,31.19,8.01,13.54,12.02,29.72,12.02,48.56,0,1.95-.11,4.17-.32,6.66-.22,2.49-.44,4.82-.65,6.98h-141.96v-29.56h115.32l-19.49,8.77c0-9.1-1.84-17-5.52-23.71-3.68-6.71-8.77-11.96-15.27-15.76-6.5-3.79-14.08-5.68-22.74-5.68s-16.3,1.9-22.9,5.68c-6.61,3.79-11.75,9.1-15.43,15.92-3.68,6.82-5.52,14.89-5.52,24.2v7.8c0,9.53,2.11,17.92,6.33,25.18,4.22,7.26,10.18,12.78,17.87,16.57,7.68,3.79,16.73,5.68,27.12,5.68,9.31,0,17.49-1.41,24.53-4.22,7.03-2.81,13.48-7.03,19.33-12.67l26.96,29.24c-8.01,9.1-18.08,16.08-30.21,20.95-12.13,4.87-26.1,7.31-41.91,7.31Z"/>
  <g>
    <ellipse class="cls-4" cx="651.08" cy="163.26" rx="95.61" ry="96.24"/>
    <ellipse class="cls-4" cx="690.21" cy="99.07" rx="14.54" ry="24.9" transform="translate(259.31 647.28) rotate(-60)"/>
    <path class="cls-3" d="m602.41,246.1c13.92-21.06,27.92-43.2,41.88-66.44,16.8-27.98,32.19-55.31,46.27-81.76"/>
    <path class="cls-3" d="m588.25,235.6c.2-1.94.62-4.99,1.53-8.64,2.15-8.6,5.64-14.69,7.52-17.85,15.86-26.68,34.56-49.98,34.56-49.98,13.25-16.52,21.17-26.32,33.87-38.91,9.61-9.52,18.27-16.98,24.83-22.33"/>
    <path class="cls-3" d="m575.9,222.72c-.47-2.2-.99-5.46-.9-9.4.16-7.2,2.23-12.51,3.13-14.81,9.56-24.43,33.66-49.17,33.66-49.17,19.73-20.25,37.73-31.38,42.1-34.03,13.88-8.41,26.67-13.85,36.66-17.41"/>
    <path class="cls-3" d="m566.95,209.01c-1.21-3.3-2.45-7.81-2.82-13.26-.18-2.62-.51-8.06,1.28-14.61.73-2.67,1.85-5.67,5.71-12.34,2.35-4.06,6.38-11.02,12.07-18.07,20.16-24.96,51.46-39.01,53.44-39.88,8.31-3.64,19.53-7.35,21.76-8.09,7.4-2.44,10.38-3.12,11.92-3.44,8.34-1.75,15.43-1.74,20.25-1.44"/>
    <path class="cls-3" d="m557.14,181.23c0-6.68.79-16.54,5.08-27.27,15.06-37.75,58.59-49.84,70.7-53.21,11.44-3.18,31.6-7.07,57.42-2.87"/>
    <path class="cls-3" d="m556.95,146.29c3.65-11.67,9-19.71,12.74-24.49,16.45-21.02,39.56-27.05,48.2-29.3,10.72-2.8,19.97-3.22,24.61-3.41,5.64-.23,14.21-.53,25.16,1.54,9.49,1.79,17.23,4.68,22.89,7.26"/>
    <path class="cls-3" d="m570.22,111.89c5.95-7.56,15.33-17.04,29.11-23.56,42.37-20.03,86.66,6.71,91.22,9.56"/>
    <path class="cls-3" d="m593.15,86.7c6.34-4.29,18.5-11.13,34.95-12.25,14.81-1.01,26.03,3.1,33.43,5.9,13.66,5.17,23.32,12.5,29.04,17.55"/>
    <path class="cls-3" d="m620.95,71.9c6.07-1.51,18.98-3.83,34.18.58,20.75,6.03,32.03,20.63,35.43,25.42"/>
    <path class="cls-3" d="m649.93,67.03c7.25.72,12.73,2.84,16.08,4.44,12.24,5.83,18.8,15.41,21.51,20.14,1.46,2.55,2.44,4.78,3.04,6.29"/>
    <path class="cls-3" d="m666.24,68.22c2.2.5,5.38,1.47,8.8,3.52.19.12,3.7,2.24,6.7,5.47,6.92,7.44,8.47,17.81,8.82,20.69"/>
    <path class="cls-3" d="m687.81,74.38c1.19,2.22,2.6,5.47,3.33,9.59,1.07,6.04.17,11.04-.58,13.93"/>
    <path class="cls-3" d="m700.02,80.57c-3.15,5.78-6.31,11.55-9.46,17.33"/>
    <path class="cls-3" d="m690.46,97.87c2.18-1.92,5.38-4.34,9.66-6.37,4.11-1.96,7.86-2.92,10.65-3.42"/>
    <path class="cls-3" d="m690.56,97.89c3.41-1.42,9.31-3.36,16.81-3.2,5.6.12,10.14,1.36,13.2,2.47"/>
    <path class="cls-3" d="m690.56,97.89c4.39-.54,11.74-.87,20.32,1.56,10.01,2.84,16.79,8.06,20.24,11.14"/>
    <path class="cls-3" d="m690.56,97.89c5.88.64,15.31,2.43,25.41,8.04,13.82,7.68,21.41,18.33,24.76,23.78"/>
    <path class="cls-3" d="m690.56,97.89c6.96,1.97,24.57,7.98,38.97,25.07,11.83,14.05,15.67,28.68,17.06,35.85"/>
    <path class="cls-3" d="m741.94,193.3c1.18-9.19,1.91-25.21-4.58-43.21-11.92-33.09-39.4-48.38-46.8-52.19"/>
    <path class="cls-3" d="m690.56,97.89c1.21.86,3.77,2.72,6.79,5.31,27.09,23.24,33.64,55.94,35.34,64.41,1.27,6.35,1.6,11.08,1.69,14.31.29,10.38-1.5,18.39-2.42,21.96-1.09,4.24-2.85,10.87-7.39,18.46-4.66,7.78-10.2,13.17-14.5,16.64"/>
    <path class="cls-3" d="m680.49,254.85c6.9-3.45,19.23-10.84,28.65-24.94,10.68-15.98,11.72-31.77,12.29-42.23,2.31-42.92-21.51-77.48-30.87-89.79"/>
    <path class="cls-3" d="m653.47,259.46c3.25-.45,7.56-1.39,12.31-3.46,5.97-2.6,10.27-5.97,13-8.48,3.28-3.23,7.78-8.22,11.98-15.07,1.86-3.04,5.34-9.16,8.48-19.03,12.5-39.29,6.55-72.74,6.55-72.74-1.84-10.33-5.81-25.73-15.22-42.78"/>
    <path class="cls-3" d="m637.99,258.6c11.62-9.16,31-27.05,44.23-55.78,21.75-47.21,11.96-91.21,8.33-104.92"/>
    <path class="cls-3" d="m617.8,253.32c13.47-13,29.81-31.74,43.78-57.05,20.1-36.43,25.58-68.86,27.22-80.65,1.01-7.24,1.5-13.35,1.75-17.72"/>
    <path class="cls-3" d="m728.1,127.02c-2.22,5.37-7.47,8.9-9.24,9.98-7.99,4.87-16.58,3.65-21.4,2.96-5.3-.76-8.84-2.26-14.51-4.69-5.08-2.18-12.4-5.39-20.4-11.84-4.7-3.79-10.56-8.53-15.09-16.85-2.69-4.93-6.02-11.05-4.6-18.48,1.06-5.53,4.34-9.62,6.59-11.68,11.3-10.36,35.2-5.13,50.58,4.16,17.71,10.71,33.79,32.63,28.07,46.46Z"/>
    <path class="cls-3" d="m740.04,148.62c-9.29,17.39-50.68,17.95-79.03,2.3-28.56-15.77-50.03-51.18-40.16-68.1,5.18-8.88,20.59-15.4,29.07-15.79.67-.03,4.28-.16,9,.22,0,0,5.25.42,10.85,1.61,16.47,3.51,30.11,11.66,30.11,11.66,3.33,1.99,13.81,8.67,24.26,20.66,5.63,6.46,10.98,12.73,14.21,22.62,1.84,5.62,5.8,17.11,1.68,24.82Z"/>
    <path class="cls-3" d="m746.43,158.02c.26,2.95.23,7.54-1.84,12.38-4.65,10.86-16.14,14.8-22.04,16.82-14.3,4.9-26.84,2.53-37.23.44-4.88-.98-19.9-4.35-37.97-15.16-12.77-7.63-31.23-18.67-42.37-40.73-4.94-9.79-14.06-27.86-5.66-43.45,5.5-10.2,15.92-14.52,20.84-16.17"/>
    <path class="cls-3" d="m742.6,191.19c-2.1,3.45-5.65,8.37-11.3,12.62-25.33,19.11-65.65,3.16-81.06-2.91-17.67-6.96-29.18-15.53-33.71-19.11-7.68-6.06-18.82-15.02-27.56-30.56-6.01-10.68-14.07-25-10.01-41.8,2.61-10.82,9.15-18.15,13.11-21.89"/>
    <path class="cls-3" d="m730.47,216.89c-4.22,3.46-10.95,8.12-20.15,11.18-6.02,2-15.21,4.02-31.66,2.18-28.72-3.21-49.98-14.85-54.97-17.67-6.13-3.47-30.09-17.55-47.4-43.6-8.02-12.07-10.48-20.43-11.45-27.2-1.38-9.63.02-17.72,1.34-22.84"/>
    <path class="cls-3" d="m708.32,240.34c-6.71,2.86-16.89,6.3-29.55,7.18-30.94,2.13-53.88-12.68-69.06-22.48-14.54-9.38-39.74-25.65-49.63-56.38-2.43-7.55-3.34-14.1-3.72-18.53"/>
    <path class="cls-3" d="m558.31,186.6c5.05,10.03,19.04,34.5,48.51,51.89,30.41,17.94,59.57,17.87,70.71,17.28"/>
  </g>
  <path class="cls-1" d="m760.99,119.62v-38.98h121.17v38.98h-121.17Zm92.26,134.49c-20.58,0-36.6-5.25-48.08-15.76-11.48-10.5-17.22-26.15-17.22-46.94V38.09h50.68v152.68c0,7.36,1.95,13.05,5.85,17.05,3.9,4.01,9.2,6.01,15.92,6.01,8.01,0,14.83-2.16,20.47-6.5l13.64,35.73c-5.2,3.68-11.43,6.45-18.68,8.28-7.26,1.84-14.78,2.76-22.58,2.76Z"/>
  <path class="cls-1" d="m1004.3,254.11c-19.93,0-37.41-3.9-52.46-11.69-15.05-7.8-26.69-18.46-34.92-32-8.23-13.53-12.34-28.96-12.34-46.29s4.06-33.08,12.18-46.62c8.12-13.53,19.22-24.15,33.3-31.83,14.07-7.68,29.99-11.53,47.75-11.53s32.54,3.63,46.29,10.88c13.75,7.26,24.63,17.65,32.65,31.19,8.01,13.54,12.02,29.72,12.02,48.56,0,1.95-.11,4.17-.32,6.66-.22,2.49-.44,4.82-.65,6.98h-141.96v-29.56h115.32l-19.49,8.77c0-9.1-1.84-17-5.52-23.71-3.68-6.71-8.77-11.96-15.27-15.76-6.5-3.79-14.08-5.68-22.74-5.68s-16.3,1.9-22.9,5.68c-6.61,3.79-11.75,9.1-15.43,15.92-3.68,6.82-5.52,14.89-5.52,24.2v7.8c0,9.53,2.11,17.92,6.33,25.18,4.22,7.26,10.18,12.78,17.87,16.57,7.68,3.79,16.73,5.68,27.12,5.68,9.31,0,17.49-1.41,24.53-4.22,7.03-2.81,13.48-7.03,19.33-12.67l26.96,29.24c-8.01,9.1-18.08,16.08-30.21,20.95-12.13,4.87-26.1,7.31-41.91,7.31Z"/>
  <path class="cls-1" d="m1122.54,251.51V76.74h48.4v49.38l-6.82-14.29c5.2-12.34,13.53-21.71,25.01-28.1,11.48-6.39,25.44-9.58,41.91-9.58v46.78c-2.17-.21-4.12-.38-5.85-.49-1.74-.11-3.57-.16-5.52-.16-13.86,0-25.07,3.95-33.62,11.86-8.56,7.91-12.83,20.2-12.83,36.87v82.51h-50.68Z"/>
  <path class="cls-2" d="m1263.85,244.71V30.92c0-3.76,3.05-6.8,6.8-6.8h91.63c20.35,0,37.9,3.3,52.63,9.91,14.72,6.61,26.09,16.08,34.11,28.42,8.01,12.34,12.02,27.07,12.02,44.18s-4.01,31.46-12.02,43.69c-8.01,12.24-19.38,21.6-34.11,28.1-14.73,6.5-32.27,9.75-52.63,9.75h-52.61c-6.08,0-9.11-7.37-4.78-11.65h0c4.3-4.24,11.58-1.19,11.58,4.84v63.35c0,3.76-3.05,6.8-6.8,6.8h-39.02c-3.76,0-6.8-3.05-6.8-6.8Zm40.88-86.15l-.77-.81c-4.11-4.34-1.03-11.48,4.94-11.48h50.45c16.24,0,28.37-3.52,36.38-10.56,8.01-7.03,12.02-16.73,12.02-29.07s-4.01-22.3-12.02-29.24c-8.01-6.93-20.14-10.4-36.38-10.4h-50.59c-5.95,0-9.03-7.1-4.97-11.45l.91-.98c4.21-4.51,11.77-1.52,11.77,4.65v94.66c0,6.15-7.51,9.14-11.74,4.68Zm101.64,90.01l-47.47-68.91c-3.11-4.51.12-10.66,5.6-10.66h39.7c2.22,0,4.31,1.09,5.58,2.91l48.02,68.91c3.14,4.51-.08,10.69-5.58,10.69h-40.24c-2.24,0-4.33-1.1-5.6-2.94Z"/>
  <path class="cls-2" d="m1477.08,241.74l95.17-213.51c1.12-2.5,3.6-4.11,6.34-4.11h42.97c2.74,0,5.22,1.61,6.34,4.11l95.47,213.51c2.05,4.59-1.31,9.77-6.34,9.77h-39.88c-2.81,0-5.34-1.69-6.41-4.28l-77.41-186.87c-1.89-4.57,1.47-9.6,6.41-9.6h0c4.95,0,8.31,5.03,6.41,9.61l-77.71,186.87c-1.08,2.59-3.6,4.28-6.41,4.28h-38.6c-5.03,0-8.39-5.18-6.34-9.77Zm49.55-48.19l9.12-26.08c.97-2.78,3.6-4.65,6.55-4.65h107.13c2.93,0,5.55,1.84,6.53,4.6l9.33,26.08c1.62,4.52-1.73,9.28-6.53,9.28h-125.57c-4.78,0-8.13-4.72-6.55-9.23Z"/>
</svg>