<?xml version="1.0" encoding="UTF-8"?>
<svg id="Planet" xmlns="http://www.w3.org/2000/svg" viewBox="0 0 1920 1080">
  <defs>
    <style>
      .cls-1 {
        stroke-linecap: round;
      }

      .cls-1, .cls-2 {
        fill: none;
        stroke: #000;
        stroke-miterlimit: 10;
        stroke-width: 5px;
      }
    </style>
  </defs>
  <ellipse class="cls-2" cx="960" cy="540.1" rx="484.67" ry="487.85"/>
  <ellipse class="cls-2" cx="1158.38" cy="214.7" rx="73.72" ry="126.21" transform="translate(393.26 1110.54) rotate(-60)"/>
  <path class="cls-1" d="m713.26,960.09c70.56-106.75,141.56-219.02,212.31-336.83,85.19-141.86,163.17-280.37,234.55-414.5"/>
  <path class="cls-1" d="m641.47,906.85c1.03-9.83,3.12-25.31,7.75-43.79,10.92-43.58,28.59-74.47,38.12-90.5,80.41-135.23,175.19-253.36,175.19-253.36,67.17-83.72,107.32-133.43,171.72-197.24,48.69-48.25,92.61-86.09,125.86-113.19"/>
  <path class="cls-1" d="m578.9,841.53c-2.41-11.16-5.02-27.66-4.59-47.63.79-36.51,11.32-63.4,15.89-75.07,48.46-123.83,170.65-249.26,170.65-249.26,99.99-102.65,191.24-159.08,213.44-172.53,70.35-42.61,135.18-70.22,185.83-88.27"/>
  <path class="cls-1" d="m533.51,772.04c-6.13-16.74-12.44-39.61-14.32-67.22-.91-13.28-2.56-40.88,6.48-74.06,3.69-13.54,9.36-28.75,28.94-62.55,11.92-20.57,32.37-55.87,61.21-91.58,102.19-126.53,260.88-197.76,270.9-202.15,42.14-18.47,98.98-37.25,110.32-40.99,37.49-12.38,52.61-15.81,60.43-17.44,42.27-8.85,78.24-8.84,102.65-7.28"/>
  <path class="cls-1" d="m483.78,631.23c-.05-33.88,4.03-83.85,25.74-138.25,76.36-191.37,297.04-252.68,358.42-269.73,58.01-16.12,160.21-35.83,291.07-14.55"/>
  <path class="cls-1" d="m482.84,454.12c18.52-59.16,45.63-99.93,64.56-124.13,83.4-106.55,200.56-137.11,244.34-148.53,54.34-14.17,101.21-16.33,124.76-17.29,28.6-1.17,72.02-2.68,127.56,7.79,48.11,9.06,87.33,23.72,116.05,36.8"/>
  <path class="cls-1" d="m550.08,279.7c30.16-38.34,77.73-86.39,147.59-119.42,214.81-101.54,439.33,34.03,462.45,48.48"/>
  <path class="cls-1" d="m666.3,151.99c32.14-21.75,93.8-56.42,177.15-62.11,75.09-5.13,131.94,15.7,169.46,29.91,69.26,26.22,118.21,63.34,147.2,88.98"/>
  <path class="cls-1" d="m807.27,76.96c30.76-7.66,96.21-19.43,173.25,2.95,105.2,30.56,162.37,104.56,179.6,128.85"/>
  <path class="cls-1" d="m954.15,52.28c36.76,3.64,64.51,14.4,81.51,22.49,62.06,29.55,95.3,78.13,109.05,102.09,7.42,12.92,12.35,24.22,15.41,31.9"/>
  <path class="cls-1" d="m1036.87,58.35c11.15,2.52,27.28,7.46,44.59,17.82.99.59,18.74,11.36,33.95,27.72,35.1,37.73,42.92,90.31,44.71,104.86"/>
  <path class="cls-1" d="m1146.2,89.55c6.03,11.27,13.16,27.74,16.87,48.61,5.43,30.6.88,55.98-2.95,70.6"/>
  <path class="cls-1" d="m1208.09,120.92c-15.99,29.28-31.98,58.56-47.97,87.84"/>
  <path class="cls-1" d="m1159.6,208.64c11.06-9.74,27.29-21.99,48.96-32.31,20.83-9.93,39.82-14.82,54.01-17.35"/>
  <path class="cls-1" d="m1160.12,208.76c17.27-7.21,47.19-17.03,85.23-16.24,28.37.59,51.4,6.89,66.93,12.51"/>
  <path class="cls-1" d="m1160.12,208.76c22.26-2.72,59.54-4.4,103.01,7.93,50.76,14.4,85.11,40.86,102.62,56.48"/>
  <path class="cls-1" d="m1160.12,208.76c29.83,3.24,77.61,12.34,128.8,40.77,70.08,38.91,108.52,92.93,125.51,120.56"/>
  <path class="cls-1" d="m1160.12,208.76c35.26,10,124.56,40.43,197.56,127.11,59.96,71.2,79.45,145.37,86.48,181.72"/>
  <path class="cls-1" d="m1420.57,692.41c5.97-46.56,9.67-127.81-23.2-219.06-60.42-167.74-199.72-245.24-237.25-264.59"/>
  <path class="cls-1" d="m1160.12,208.76c6.13,4.35,19.1,13.77,34.41,26.91,137.33,117.81,170.53,283.56,179.14,326.51,6.44,32.17,8.11,56.18,8.57,72.57,1.48,52.63-7.58,93.23-12.24,111.35-5.53,21.51-14.45,55.13-37.47,93.6-23.61,39.46-51.72,66.77-73.51,84.37"/>
  <path class="cls-1" d="m1109.1,1004.43c34.95-17.48,97.49-54.94,145.24-126.42,54.12-81.01,59.43-161.08,62.28-214.08,11.69-217.59-109.03-392.78-156.51-455.16"/>
  <path class="cls-1" d="m972.11,1027.8c16.46-2.28,38.33-7.06,62.39-17.56,30.25-13.2,52.04-30.25,65.88-42.99,16.62-16.39,39.44-41.67,60.75-76.4,9.45-15.39,27.07-46.46,42.99-96.49,63.35-199.16,33.19-368.75,33.19-368.75-9.32-52.39-29.45-130.43-77.18-216.86"/>
  <path class="cls-1" d="m893.66,1023.41c58.92-46.41,157.14-137.12,224.24-282.78,110.24-239.33,60.65-462.37,42.22-531.87"/>
  <path class="cls-1" d="m791.3,996.67c68.31-65.89,151.12-160.9,221.93-289.22,101.91-184.69,129.68-349.09,138-408.86,5.11-36.69,7.58-67.66,8.89-89.83"/>
  <path class="cls-1" d="m1350.41,356.43c-11.25,27.24-37.87,45.09-46.85,50.57-40.49,24.7-84.05,18.49-108.47,15.01-26.86-3.83-44.8-11.44-73.56-23.78-25.75-11.05-62.88-27.31-103.42-60.04-23.83-19.24-53.53-43.22-76.52-85.44-13.62-25.02-30.5-56.02-23.29-93.68,5.37-28.05,21.99-48.77,33.41-59.23,57.27-52.5,178.45-26.03,256.38,21.1,89.76,54.28,171.27,165.42,142.32,235.5Z"/>
  <path class="cls-1" d="m1410.97,465.92c-47.09,88.18-256.91,91-400.63,11.65-144.78-79.94-253.64-259.46-203.57-345.25,26.27-45,104.36-78.07,147.38-80.04,3.4-.16,21.69-.81,45.64,1.11,0,0,26.61,2.13,54.98,8.18,83.47,17.78,152.62,59.1,152.62,59.1,16.9,10.1,70,43.93,122.97,104.75,28.54,32.77,55.65,64.53,72.06,114.67,9.32,28.47,29.41,86.75,8.54,125.84Z"/>
  <path class="cls-1" d="m1443.36,513.58c1.32,14.96,1.18,38.24-9.32,62.74-23.59,55.08-81.81,75.03-111.73,85.29-72.5,24.85-136.08,12.84-188.73,2.23-24.72-4.98-100.86-22.06-192.48-76.83-64.72-38.69-158.32-94.65-214.77-206.49-25.06-49.65-71.3-141.26-28.67-220.24,27.9-51.69,80.7-73.6,105.65-81.98"/>
  <path class="cls-1" d="m1423.93,681.7c-10.66,17.5-28.65,42.41-57.27,64-128.43,96.88-332.82,16.01-410.94-14.76-89.56-35.27-147.9-78.75-170.86-96.86-38.93-30.71-95.39-76.14-139.71-154.91-30.46-54.13-71.31-126.74-50.77-211.92,13.23-54.87,46.4-91.98,66.45-110.97"/>
  <path class="cls-1" d="m1362.47,811.99c-21.37,17.52-55.5,41.18-102.12,56.69-30.5,10.15-77.1,20.38-160.51,11.06-145.58-16.25-253.38-75.29-278.65-89.59-31.05-17.57-152.55-88.95-240.31-221.01-40.65-61.17-53.12-103.59-58.02-137.89-6.98-48.79.11-89.83,6.8-115.77"/>
  <path class="cls-1" d="m1250.19,930.88c-34.03,14.49-85.62,31.96-149.81,36.38-156.82,10.79-273.12-64.28-350.11-113.98-73.7-47.57-201.45-130.04-251.6-285.83-12.32-38.26-16.91-71.5-18.85-93.94"/>
  <path class="cls-1" d="m489.7,658.44c25.58,50.84,96.5,174.9,245.89,263.03,154.16,90.94,301.96,90.58,358.46,87.58"/>
</svg>