<?xml version="1.0" encoding="UTF-8" standalone="no"?>
<svg
   id="Planet"
   viewBox="0 0 974.34 980.70001"
   version="1.1"
   sodipodi:docname="geoterra-iso-black.svg"
   width="974.34003"
   height="980.70001"
   inkscape:version="1.4 (1:1.4+202410161351+e7c3feb100)"
   xmlns:inkscape="http://www.inkscape.org/namespaces/inkscape"
   xmlns:sodipodi="http://sodipodi.sourceforge.net/DTD/sodipodi-0.dtd"
   xmlns="http://www.w3.org/2000/svg"
   xmlns:svg="http://www.w3.org/2000/svg">
  <sodipodi:namedview
     id="namedview32"
     pagecolor="#505050"
     bordercolor="#eeeeee"
     borderopacity="1"
     inkscape:showpageshadow="0"
     inkscape:pageopacity="0"
     inkscape:pagecheckerboard="0"
     inkscape:deskcolor="#d1d1d1"
     inkscape:zoom="0.55259086"
     inkscape:cx="120.3422"
     inkscape:cy="412.60183"
     inkscape:window-width="1920"
     inkscape:window-height="1017"
     inkscape:window-x="0"
     inkscape:window-y="0"
     inkscape:window-maximized="1"
     inkscape:current-layer="Planet" />
  <defs
     id="defs1">
    <style
       id="style1">
      .cls-1 {
        stroke-linecap: round;
      }

      .cls-1, .cls-2 {
        fill: none;
        stroke: #000;
        stroke-miterlimit: 10;
        stroke-width: 5px;
      }
    </style>
  </defs>
  <ellipse
     class="cls-2"
     cx="487.17001"
     cy="490.35001"
     rx="484.67001"
     ry="487.85001"
     id="ellipse1" />
  <ellipse
     class="cls-2"
     cx="199.92387"
     cy="676.18542"
     rx="73.720001"
     ry="126.21"
     transform="rotate(-60)"
     id="ellipse2" />
  <path
     class="cls-1"
     d="m 240.43001,910.34003 c 70.56,-106.75 141.56,-219.02 212.31,-336.83 85.19,-141.86 163.17,-280.37 234.55,-414.5"
     id="path2" />
  <path
     class="cls-1"
     d="m 168.64001,857.10003 c 1.03,-9.83 3.12,-25.31 7.75,-43.79 10.92,-43.58 28.59,-74.47 38.12,-90.5 80.41,-135.23 175.19,-253.36 175.19,-253.36 67.17,-83.72 107.32,-133.43 171.72,-197.24 48.69,-48.25 92.61,-86.09 125.86,-113.19"
     id="path3" />
  <path
     class="cls-1"
     d="m 106.07001,791.78003 c -2.41,-11.16 -5.02,-27.66 -4.59,-47.63 0.79,-36.51 11.32,-63.4 15.89,-75.07 48.46,-123.83 170.65,-249.26 170.65,-249.26 99.99,-102.65 191.24,-159.08 213.44,-172.53 70.35,-42.61 135.18,-70.22 185.83,-88.27"
     id="path4" />
  <path
     class="cls-1"
     d="m 60.680013,722.29003 c -6.13,-16.74 -12.44,-39.61 -14.32,-67.22 -0.91,-13.28 -2.56,-40.88 6.48,-74.06 3.69,-13.54 9.36,-28.75 28.94,-62.55 11.92,-20.57 32.369997,-55.87 61.209997,-91.58 102.19,-126.53 260.88,-197.76 270.9,-202.15 42.14,-18.47 98.98,-37.25 110.32,-40.99 37.49,-12.38 52.61,-15.81 60.43,-17.44 42.27,-8.85 78.24,-8.84 102.65,-7.28"
     id="path5" />
  <path
     class="cls-1"
     d="m 10.950013,581.48003 c -0.05,-33.88 4.03,-83.85 25.74,-138.25 76.359997,-191.37 297.039997,-252.68 358.419997,-269.73 58.01,-16.12 160.21,-35.83 291.07,-14.55"
     id="path6" />
  <path
     class="cls-1"
     d="m 10.010013,404.37003 c 18.52,-59.16 45.63,-99.93 64.56,-124.13 83.399997,-106.55 200.559997,-137.11 244.339997,-148.53 54.34,-14.17 101.21,-16.33 124.76,-17.29 28.6,-1.17 72.02,-2.68 127.56,7.79 48.11,9.06 87.33,23.72 116.05,36.8"
     id="path7" />
  <path
     class="cls-1"
     d="m 77.250013,229.95003 c 30.159997,-38.34 77.729997,-86.39 147.589997,-119.42 214.81,-101.5399995 439.33,34.03 462.45,48.48"
     id="path8" />
  <path
     class="cls-1"
     d="m 193.47001,102.24003 c 32.14,-21.749999 93.8,-56.419999 177.15,-62.109999 75.09,-5.13 131.94,15.7 169.46,29.91 69.26,26.22 118.21,63.339999 147.2,88.979999"
     id="path9" />
  <path
     class="cls-1"
     d="m 334.44001,27.210031 c 30.76,-7.66 96.21,-19.4300005 173.25,2.95 105.2,30.56 162.37,104.559999 179.6,128.849999"
     id="path10" />
  <path
     class="cls-1"
     d="m 481.32001,2.5300305 c 36.76,3.64 64.51,14.4000005 81.51,22.4900005 62.06,29.55 95.3,78.129999 109.05,102.089999 7.42,12.92 12.35,24.22 15.41,31.9"
     id="path11" />
  <path
     class="cls-1"
     d="m 564.04001,8.6000305 c 11.15,2.5200005 27.28,7.4600005 44.59,17.8200005 0.99,0.59 18.74,11.36 33.95,27.72 35.1,37.73 42.92,90.309999 44.71,104.859999"
     id="path12" />
  <path
     class="cls-1"
     d="m 673.37001,39.800031 c 6.03,11.27 13.16,27.74 16.87,48.61 5.43,30.599999 0.88,55.979999 -2.95,70.599999"
     id="path13" />
  <path
     class="cls-1"
     d="m 735.26001,71.170031 c -15.99,29.279999 -31.98,58.559999 -47.97,87.839999"
     id="path14" />
  <path
     class="cls-1"
     d="m 686.77001,158.89003 c 11.06,-9.74 27.29,-21.99 48.96,-32.31 20.83,-9.93 39.82,-14.82 54.01,-17.35"
     id="path15" />
  <path
     class="cls-1"
     d="m 687.29001,159.01003 c 17.27,-7.21 47.19,-17.03 85.23,-16.24 28.37,0.59 51.4,6.89 66.93,12.51"
     id="path16" />
  <path
     class="cls-1"
     d="m 687.29001,159.01003 c 22.26,-2.72 59.54,-4.4 103.01,7.93 50.76,14.4 85.11,40.86 102.62,56.48"
     id="path17" />
  <path
     class="cls-1"
     d="m 687.29001,159.01003 c 29.83,3.24 77.61,12.34 128.8,40.77 70.08,38.91 108.52,92.93 125.51,120.56"
     id="path18" />
  <path
     class="cls-1"
     d="m 687.29001,159.01003 c 35.26,10 124.56,40.43 197.56,127.11 59.96,71.2 79.45,145.37 86.48,181.72"
     id="path19" />
  <path
     class="cls-1"
     d="m 947.74001,642.66003 c 5.97,-46.56 9.67,-127.81 -23.2,-219.06 -60.42,-167.74 -199.72,-245.24 -237.25,-264.59"
     id="path20" />
  <path
     class="cls-1"
     d="m 687.29001,159.01003 c 6.13,4.35 19.1,13.77 34.41,26.91 137.33,117.81 170.53,283.56 179.14,326.51 6.44,32.17 8.11,56.18 8.57,72.57 1.48,52.63 -7.58,93.23 -12.24,111.35 -5.53,21.51 -14.45,55.13 -37.47,93.6 -23.61,39.46 -51.72,66.77 -73.51,84.37"
     id="path21" />
  <path
     class="cls-1"
     d="m 636.27001,954.68003 c 34.95,-17.48 97.49,-54.94 145.24,-126.42 54.12,-81.01 59.43,-161.08 62.28,-214.08 11.69,-217.59 -109.03,-392.78 -156.51,-455.16"
     id="path22" />
  <path
     class="cls-1"
     d="m 499.28001,978.05003 c 16.46,-2.28 38.33,-7.06 62.39,-17.56 30.25,-13.2 52.04,-30.25 65.88,-42.99 16.62,-16.39 39.44,-41.67 60.75,-76.4 9.45,-15.39 27.07,-46.46 42.99,-96.49 63.35,-199.16 33.19,-368.75 33.19,-368.75 -9.32,-52.39 -29.45,-130.43 -77.18,-216.86"
     id="path23" />
  <path
     class="cls-1"
     d="m 420.83001,973.66003 c 58.92,-46.41 157.14,-137.12 224.24,-282.78 110.24,-239.33 60.65,-462.37 42.22,-531.87"
     id="path24" />
  <path
     class="cls-1"
     d="m 318.47001,946.92003 c 68.31,-65.89 151.12,-160.9 221.93,-289.22 101.91,-184.69 129.68,-349.09 138,-408.86 5.11,-36.69 7.58,-67.66 8.89,-89.83"
     id="path25" />
  <path
     class="cls-1"
     d="m 877.58001,306.68003 c -11.25,27.24 -37.87,45.09 -46.85,50.57 -40.49,24.7 -84.05,18.49 -108.47,15.01 -26.86,-3.83 -44.8,-11.44 -73.56,-23.78 -25.75,-11.05 -62.88,-27.31 -103.42,-60.04 -23.83,-19.24 -53.53,-43.22 -76.52,-85.44 -13.62,-25.02 -30.5,-56.02 -23.29,-93.68 5.37,-28.049999 21.99,-48.769999 33.41,-59.229999 57.27,-52.5000005 178.45,-26.03 256.38,21.1 89.76,54.279999 171.27,165.419999 142.32,235.499999 z"
     id="path26" />
  <path
     class="cls-1"
     d="m 938.14001,416.17003 c -47.09,88.18 -256.91,91 -400.63,11.65 -144.78,-79.94 -253.64,-259.46 -203.57,-345.249999 26.27,-45 104.36,-78.0700005 147.38,-80.0400005 3.4,-0.16 21.69,-0.81 45.64,1.11 0,0 26.61,2.13 54.98,8.1800005 83.47,17.78 152.62,59.1 152.62,59.1 16.9,10.1 70,43.929999 122.97,104.749999 28.54,32.77 55.65,64.53 72.06,114.67 9.32,28.47 29.41,86.75 8.54,125.84 z"
     id="path27" />
  <path
     class="cls-1"
     d="m 970.53001,463.83003 c 1.32,14.96 1.18,38.24 -9.32,62.74 -23.59,55.08 -81.81,75.03 -111.73,85.29 -72.5,24.85 -136.08,12.84 -188.73,2.23 -24.72,-4.98 -100.86,-22.06 -192.48,-76.83 -64.72,-38.69 -158.32,-94.65 -214.77,-206.49 -25.06,-49.65 -71.3,-141.26 -28.67,-220.24 27.9,-51.689999 80.7,-73.599999 105.65,-81.979999"
     id="path28" />
  <path
     class="cls-1"
     d="m 951.10001,631.95003 c -10.66,17.5 -28.65,42.41 -57.27,64 -128.43,96.88 -332.82,16.01 -410.94,-14.76 -89.56,-35.27 -147.9,-78.75 -170.86,-96.86 -38.93,-30.71 -95.39,-76.14 -139.71,-154.91 -30.46,-54.13 -71.31,-126.74 -50.77,-211.92 13.23,-54.87 46.4,-91.98 66.45,-110.97"
     id="path29" />
  <path
     class="cls-1"
     d="m 889.64001,762.24003 c -21.37,17.52 -55.5,41.18 -102.12,56.69 -30.5,10.15 -77.1,20.38 -160.51,11.06 -145.58,-16.25 -253.38,-75.29 -278.65,-89.59 -31.05,-17.57 -152.55,-88.95 -240.31,-221.01 -40.649997,-61.17 -53.119997,-103.59 -58.019997,-137.89 -6.98,-48.79 0.11,-89.83 6.8,-115.77"
     id="path30" />
  <path
     class="cls-1"
     d="m 777.36001,881.13003 c -34.03,14.49 -85.62,31.96 -149.81,36.38 -156.82,10.79 -273.12,-64.28 -350.11,-113.98 -73.7,-47.57 -201.449997,-130.04 -251.599997,-285.83 -12.32,-38.26 -16.9099996,-71.5 -18.8499996,-93.94"
     id="path31" />
  <path
     class="cls-1"
     d="m 16.870013,608.69003 c 25.58,50.84 96.499997,174.9 245.889997,263.03 154.16,90.94 301.96,90.58 358.46,87.58"
     id="path32" />
</svg>
