<svg width="32" height="49" viewBox="0 0 32 49" fill="none" xmlns="http://www.w3.org/2000/svg">
<g clip-path="url(#clip0_433_1416)">
<rect width="32" height="49" rx="16" fill="#F39C29"/>
<path d="M9 22.9229C9 27.7747 13.2445 31.7869 15.1232 33.3252C15.3921 33.5454 15.5281 33.6568 15.7287 33.7132C15.8849 33.7572 16.1148 33.7572 16.271 33.7132C16.472 33.6567 16.6071 33.5463 16.877 33.3254C18.7557 31.7871 22.9999 27.7751 22.9999 22.9233C22.9999 21.0872 22.2625 19.3261 20.9497 18.0277C19.637 16.7294 17.8566 16 16.0001 16C14.1436 16 12.363 16.7295 11.0503 18.0278C9.7375 19.3262 9 21.0867 9 22.9229Z" stroke="white" stroke-width="2" stroke-linecap="round" stroke-linejoin="round"/>
<path d="M14 22C14 23.1046 14.8954 24 16 24C17.1046 24 18 23.1046 18 22C18 20.8954 17.1046 20 16 20C14.8954 20 14 20.8954 14 22Z" stroke="white" stroke-width="2" stroke-linecap="round" stroke-linejoin="round"/>
</g>
<defs>
<clipPath id="clip0_433_1416">
<rect width="32" height="49" fill="white"/>
</clipPath>
</defs>
</svg>
